<?xml version="1.0" encoding="utf-8"?>
<!-- Generator: Adobe Illustrator 16.0.0, SVG Export Plug-In . SVG Version: 6.00 Build 0)  -->
<!DOCTYPE svg PUBLIC "-//W3C//DTD SVG 1.1//EN" "http://www.w3.org/Graphics/SVG/1.1/DTD/svg11.dtd">
<svg version="1.1" id="Layer_1" xmlns="http://www.w3.org/2000/svg" xmlns:xlink="http://www.w3.org/1999/xlink" x="0px" y="0px"
	 width="236.667px" height="21px" viewBox="0 0 236.667 21" enable-background="new 0 0 236.667 21" xml:space="preserve">
<g>
	<g>
		<path fill="#FFFEF9" d="M11.37,5.527c0,0.29,0.048,1.579,0.193,2.514c-0.064,0.193-0.499,0.258-0.612,0.112
			c-0.436-1.498-1.467-2.304-3.029-2.304c-1.789,0-3.706,1.53-3.706,4.737s1.853,4.931,3.786,4.931c1.95,0,2.853-1.401,3.287-2.497
			c0.129-0.129,0.516-0.081,0.613,0.112c-0.113,1.192-0.387,2.159-0.613,2.53c-0.869,0.241-2.014,0.596-3.271,0.596
			c-1.579,0-3.19-0.371-4.335-1.225c-1.16-0.887-2.046-2.224-2.046-4.222c0-1.966,0.838-3.352,1.95-4.271
			c1.144-0.95,2.787-1.434,4.463-1.434C9.694,5.108,10.887,5.495,11.37,5.527z"/>
		<path fill="#FFFEF9" d="M17.854,9.555c0,0.451,0.016,0.483,0.451,0.483h1.111c0.838,0,1.031-0.112,1.192-0.886l0.081-0.403
			c0.112-0.129,0.516-0.129,0.596,0.017c-0.032,0.516-0.049,1.096-0.049,1.707c0,0.613,0.017,1.193,0.049,1.709
			c-0.08,0.145-0.483,0.16-0.596,0.016l-0.081-0.402c-0.161-0.773-0.354-0.902-1.192-0.902h-1.111c-0.436,0-0.451,0.016-0.451,0.499
			v1.917c0,0.742,0.064,1.258,0.258,1.531c0.209,0.29,0.516,0.419,1.691,0.419c1.402,0,1.949-0.048,2.836-1.869
			c0.129-0.177,0.531-0.112,0.596,0.081c-0.064,0.838-0.451,2.143-0.676,2.578C21.704,16.016,20.157,16,18.836,16h-2.095
			c-0.773,0-1.563,0.016-2.771,0.049c-0.129-0.098-0.129-0.484,0-0.564l0.757-0.113c0.726-0.112,0.822-0.209,0.822-1.691V7.67
			c0-1.467-0.097-1.563-0.822-1.709l-0.402-0.08c-0.145-0.097-0.129-0.467,0.032-0.564c0.757,0.033,1.547,0.049,2.32,0.049h3.416
			c1.031,0,1.95-0.016,2.159-0.049c0.016,0.258,0.129,1.418,0.209,2.498c-0.064,0.178-0.435,0.209-0.596,0.064
			c-0.178-0.564-0.402-1.047-0.612-1.273c-0.306-0.306-0.79-0.499-1.579-0.499h-1.289c-0.531,0-0.531,0.032-0.531,0.628V9.555z"/>
		<path fill="#FFFEF9" d="M35.39,13.261c0,1.048,0,2.062,0.032,2.595c-0.113,0.193-0.564,0.37-0.951,0.37
			c-0.016,0-0.547-0.821-1.305-1.757l-3.723-4.607c-0.934-1.145-1.466-1.821-1.756-2.062c-0.08,0.16-0.08,0.435-0.08,1.031v3.125
			c0,1.306,0.064,2.514,0.241,2.949c0.146,0.338,0.516,0.451,0.935,0.516l0.451,0.064c0.129,0.129,0.097,0.467,0,0.564
			C28.364,16.016,27.72,16,27.075,16c-0.597,0-1.192,0.016-1.805,0.049c-0.097-0.098-0.129-0.436,0-0.564l0.274-0.049
			c0.435-0.08,0.757-0.193,0.886-0.531c0.177-0.436,0.226-1.644,0.226-2.949V7.864c0-0.887-0.016-1.145-0.113-1.37
			c-0.129-0.274-0.354-0.468-0.918-0.548l-0.451-0.064c-0.113-0.129-0.097-0.516,0.064-0.564c0.758,0.033,1.562,0.049,2.224,0.049
			c0.548,0,1.015-0.016,1.354-0.049c0.161,0.726,1.208,1.95,2.659,3.674l1.354,1.596c0.709,0.838,1.176,1.402,1.547,1.772
			c0.064-0.161,0.064-0.435,0.064-0.726V9.411c0-1.306-0.064-2.514-0.242-2.949c-0.145-0.338-0.5-0.451-0.935-0.516l-0.435-0.064
			c-0.129-0.129-0.098-0.467,0-0.564c0.869,0.033,1.498,0.049,2.158,0.049c0.597,0,1.177-0.016,1.805-0.049
			c0.098,0.098,0.129,0.436,0,0.564L36.502,5.93c-0.42,0.064-0.726,0.193-0.871,0.531c-0.177,0.436-0.241,1.644-0.241,2.949V13.261z
			"/>
		<path fill="#FFFEF9" d="M42.662,6.575c0-0.387,0-0.468-0.387-0.468h-0.998c-1.177,0-1.516,0.645-1.998,1.821
			c-0.193,0.096-0.5,0.064-0.597-0.146c0.339-1.112,0.419-2.11,0.532-2.739c0.064-0.049,0.145-0.08,0.225-0.08
			c0.081,0,0.162,0.016,0.227,0.064c0.08,0.273,0.129,0.338,1.354,0.338h5.994c1.062,0,1.305-0.016,1.449-0.354
			c0.064-0.032,0.113-0.048,0.21-0.048s0.21,0.064,0.241,0.112c-0.16,0.548-0.273,1.853-0.241,2.771
			c-0.081,0.146-0.516,0.177-0.597,0.048c-0.273-1.031-0.499-1.788-1.707-1.788h-0.967c-0.387,0-0.436,0.048-0.436,0.468v7.105
			c0,1.498,0.097,1.627,0.822,1.725l0.645,0.08c0.112,0.097,0.112,0.467,0,0.564C45.386,16.016,44.58,16,43.855,16
			c-0.773,0-1.611,0.016-2.74,0.049c-0.129-0.098-0.129-0.468,0-0.564l0.726-0.08c0.726-0.081,0.821-0.227,0.821-1.725V6.575z"/>
		<path fill="#FFFEF9" d="M54.705,9.555c0,0.451,0.016,0.483,0.451,0.483h1.111c0.838,0,1.031-0.112,1.192-0.886l0.081-0.403
			c0.112-0.129,0.516-0.129,0.596,0.017c-0.032,0.516-0.049,1.096-0.049,1.707c0,0.613,0.017,1.193,0.049,1.709
			c-0.08,0.145-0.483,0.16-0.596,0.016l-0.081-0.402c-0.161-0.773-0.354-0.902-1.192-0.902h-1.111c-0.436,0-0.451,0.016-0.451,0.499
			v1.917c0,0.742,0.064,1.258,0.258,1.531c0.209,0.29,0.516,0.419,1.691,0.419c1.402,0,1.949-0.048,2.836-1.869
			c0.129-0.177,0.531-0.112,0.596,0.081c-0.064,0.838-0.451,2.143-0.676,2.578C58.556,16.016,57.009,16,55.688,16h-2.095
			c-0.773,0-1.563,0.016-2.771,0.049c-0.129-0.098-0.129-0.484,0-0.564l0.757-0.113c0.726-0.112,0.822-0.209,0.822-1.691V7.67
			c0-1.467-0.097-1.563-0.822-1.709l-0.402-0.08c-0.145-0.097-0.129-0.467,0.032-0.564c0.757,0.033,1.547,0.049,2.32,0.049h3.416
			c1.031,0,1.95-0.016,2.159-0.049c0.016,0.258,0.129,1.418,0.209,2.498c-0.064,0.178-0.435,0.209-0.596,0.064
			c-0.178-0.564-0.402-1.047-0.612-1.273c-0.306-0.306-0.79-0.499-1.579-0.499h-1.289c-0.531,0-0.531,0.032-0.531,0.628V9.555z"/>
		<path fill="#FFFEF9" d="M63.572,7.976c0-1.611-0.032-1.788-0.709-1.886l-0.436-0.064c-0.16-0.08-0.16-0.482,0.033-0.563
			c1.208-0.081,2.465-0.146,3.996-0.146c1.369,0,2.545,0.21,3.158,0.58c0.934,0.549,1.418,1.354,1.418,2.385
			c0,1.435-0.967,2.047-1.709,2.418c-0.16,0.08-0.16,0.177-0.08,0.354c1.063,2.16,1.725,3.368,2.498,4.029
			c0.418,0.338,0.838,0.435,1.079,0.451c0.146,0.08,0.146,0.322,0.064,0.418c-0.258,0.113-0.773,0.146-1.272,0.146
			c-1.482,0-2.418-0.532-3.127-1.692c-0.516-0.854-0.886-1.643-1.256-2.497c-0.193-0.435-0.451-0.563-0.854-0.563
			c-0.563,0-0.597,0.031-0.597,0.354v1.982c0,1.482,0.098,1.596,0.822,1.725l0.436,0.08c0.112,0.08,0.112,0.467,0,0.564
			C66.183,16.016,65.441,16,64.668,16c-0.806,0-1.515,0.016-2.353,0.049c-0.129-0.098-0.129-0.484,0-0.564l0.435-0.08
			c0.726-0.129,0.822-0.242,0.822-1.725V7.976z M65.779,10.022c0,0.564,0.049,0.613,1,0.613c0.58,0,0.918-0.146,1.225-0.451
			c0.273-0.274,0.58-0.79,0.58-1.74c0-1.451-0.854-2.385-2.111-2.385c-0.66,0-0.693,0.048-0.693,0.821V10.022z"/>
		<path fill="#FFFEF9" d="M86.021,9.684c0,0.436,0.017,0.483,0.451,0.483h1.241c0.854,0,1.031-0.112,1.192-0.902l0.08-0.387
			C89.1,8.733,89.502,8.75,89.6,8.895c-0.033,0.516-0.049,1.111-0.049,1.724c0,0.597,0.016,1.192,0.049,1.676
			c-0.098,0.146-0.5,0.161-0.613,0.017l-0.08-0.387c-0.161-0.773-0.338-0.902-1.192-0.902h-1.241c-0.435,0-0.451,0.048-0.451,0.482
			v2.176c0,1.498,0.098,1.627,0.822,1.725l0.596,0.08c0.113,0.097,0.113,0.467,0,0.564C86.441,16.016,85.651,16,84.878,16
			c-0.741,0-1.547,0.016-2.514,0.049c-0.129-0.098-0.129-0.468,0-0.564l0.532-0.08c0.725-0.113,0.821-0.227,0.821-1.725V7.686
			c0-1.498-0.097-1.644-0.821-1.756l-0.322-0.049c-0.146-0.097-0.146-0.5,0.031-0.564c0.693,0.033,1.499,0.049,2.272,0.049h3.384
			c1.031,0,1.949-0.016,2.176-0.049c0,0.274,0,1.435,0.031,2.514c-0.064,0.178-0.418,0.193-0.611,0.064
			c-0.178-0.66-0.307-1.047-0.468-1.256c-0.274-0.339-0.757-0.532-1.579-0.532h-1.257c-0.532,0-0.532,0.032-0.532,0.661V9.684z"/>
		<path fill="#FFFEF9" d="M104.38,10.635c0,3.512-2.353,5.623-5.817,5.623c-3.238,0-5.591-2.127-5.591-5.494
			c0-3.191,2.385-5.656,5.753-5.656C102.076,5.108,104.38,7.364,104.38,10.635z M98.596,5.849c-1.982,0-3.046,1.853-3.046,4.544
			c0,1.966,0.692,5.124,3.319,5.124c2.111,0,2.933-2.062,2.933-4.673C101.802,8.088,100.594,5.849,98.596,5.849z"/>
		<path fill="#FFFEF9" d="M108.479,7.976c0-1.611-0.032-1.788-0.709-1.886l-0.436-0.064c-0.16-0.08-0.16-0.482,0.033-0.563
			c1.208-0.081,2.465-0.146,3.996-0.146c1.369,0,2.545,0.21,3.158,0.58c0.934,0.549,1.418,1.354,1.418,2.385
			c0,1.435-0.967,2.047-1.709,2.418c-0.16,0.08-0.16,0.177-0.08,0.354c1.063,2.16,1.725,3.368,2.498,4.029
			c0.418,0.338,0.838,0.435,1.079,0.451c0.146,0.08,0.146,0.322,0.064,0.418c-0.258,0.113-0.773,0.146-1.272,0.146
			c-1.482,0-2.418-0.532-3.127-1.692c-0.516-0.854-0.886-1.643-1.256-2.497c-0.193-0.435-0.451-0.563-0.854-0.563
			c-0.563,0-0.597,0.031-0.597,0.354v1.982c0,1.482,0.098,1.596,0.822,1.725l0.436,0.08c0.112,0.08,0.112,0.467,0,0.564
			c-0.854-0.033-1.596-0.049-2.369-0.049c-0.806,0-1.515,0.016-2.353,0.049c-0.129-0.098-0.129-0.484,0-0.564l0.435-0.08
			c0.726-0.129,0.822-0.242,0.822-1.725V7.976z M110.686,10.022c0,0.564,0.049,0.613,1,0.613c0.58,0,0.918-0.146,1.225-0.451
			c0.273-0.274,0.58-0.79,0.58-1.74c0-1.451-0.854-2.385-2.111-2.385c-0.66,0-0.693,0.048-0.693,0.821V10.022z"/>
		<path fill="#FFFEF9" d="M137.471,14.18c0,0.676,0.031,0.998,0.338,1.062c0.064,0.064,0.049,0.339-0.049,0.387
			c-0.273,0.049-0.693,0.098-1.127,0.242c-0.564,0.178-1.951,0.387-2.854,0.387c-1.096,0-2.029-0.113-3.174-0.564
			c-1.885-0.757-3.174-2.545-3.174-4.865c0-2.015,0.902-3.787,2.836-4.867c1.096-0.596,2.4-0.854,3.77-0.854
			c1.789,0,2.676,0.387,3.191,0.387c0.049,0.483,0.064,1.611,0.225,2.594c-0.064,0.178-0.498,0.193-0.611,0.033
			c-0.516-1.516-1.531-2.272-3.029-2.272c-2.562,0-3.803,2.127-3.803,4.673c0,2.305,0.789,3.674,1.836,4.383
			c0.773,0.516,1.611,0.612,2.209,0.612c0.918,0,1.111-0.177,1.111-1.225v-1.015c0-0.871-0.098-0.967-0.871-1.08l-0.709-0.097
			c-0.176-0.097-0.176-0.468,0-0.563c1.145,0.031,1.934,0.048,2.725,0.048c0.773,0,1.562-0.017,2.109-0.048
			c0.129,0.096,0.129,0.467,0,0.563l-0.369,0.064c-0.484,0.081-0.58,0.241-0.58,1.112V14.18z"/>
		<path fill="#FFFEF9" d="M144.374,13.326c0,0.757,0.064,1.272,0.273,1.53c0.211,0.274,0.5,0.403,1.676,0.403
			c1.467,0,1.918-0.048,2.869-1.917c0.129-0.162,0.5-0.098,0.611,0.096c-0.08,0.838-0.467,2.176-0.691,2.611
			c-0.855-0.033-2.402-0.049-3.723-0.049h-2.16c-0.74,0-1.547,0.016-2.545,0.049c-0.145-0.098-0.178-0.468-0.049-0.564l0.613-0.08
			c0.725-0.098,0.82-0.227,0.82-1.725V7.686c0-1.498-0.096-1.644-0.82-1.74l-0.469-0.064c-0.16-0.097-0.16-0.467,0.033-0.564
			c0.838,0.033,1.643,0.049,2.416,0.049s1.58-0.016,2.385-0.049c0.129,0.098,0.129,0.468,0,0.564l-0.418,0.064
			c-0.725,0.113-0.822,0.242-0.822,1.74V13.326z"/>
		<path fill="#FFFEF9" d="M156.061,13.68c0,1.498,0.096,1.627,0.82,1.725l0.645,0.08c0.113,0.097,0.113,0.467,0,0.564
			C156.479,16.016,155.69,16,154.917,16s-1.58,0.016-2.529,0.049c-0.129-0.098-0.129-0.468,0-0.564l0.547-0.08
			c0.725-0.113,0.822-0.227,0.822-1.725v-0.806c0-0.806-0.016-1.063-0.436-1.917l-1.918-3.965c-0.322-0.66-0.467-0.918-1.031-1.015
			l-0.547-0.097c-0.145-0.129-0.129-0.516,0.064-0.564c0.725,0.033,1.32,0.049,2.271,0.049c0.982,0,1.805-0.016,2.354-0.049
			c0.145,0.064,0.176,0.436,0.031,0.564l-0.547,0.129c-0.291,0.064-0.387,0.129-0.387,0.145c0,0.129,0.08,0.371,0.418,1.129
			l0.758,1.724c0.242,0.532,0.611,1.272,0.805,1.676c0.469-0.79,0.967-1.837,1.387-2.659c0.58-1.144,0.773-1.627,0.773-1.82
			c0-0.097-0.258-0.193-0.645-0.258l-0.307-0.064c-0.129-0.08-0.145-0.483,0.016-0.564c0.645,0.033,1.225,0.049,1.805,0.049
			c0.613,0,1.113-0.016,1.58-0.049c0.193,0.064,0.193,0.451,0.064,0.564l-0.42,0.08c-0.289,0.049-0.66,0.162-0.838,0.387
			c-0.24,0.307-0.627,0.887-1.4,2.289l-1.016,1.836c-0.42,0.758-0.531,1.16-0.531,2.079V13.68z"/>
		<path fill="#FFFEF9" d="M171.211,5.527c0,0.29,0.049,1.579,0.193,2.514c-0.064,0.193-0.5,0.258-0.613,0.112
			c-0.434-1.498-1.465-2.304-3.029-2.304c-1.787,0-3.705,1.53-3.705,4.737s1.854,4.931,3.787,4.931c1.949,0,2.852-1.401,3.287-2.497
			c0.129-0.129,0.516-0.081,0.611,0.112c-0.113,1.192-0.387,2.159-0.611,2.53c-0.871,0.241-2.016,0.596-3.271,0.596
			c-1.58,0-3.191-0.371-4.334-1.225c-1.16-0.887-2.047-2.224-2.047-4.222c0-1.966,0.838-3.352,1.949-4.271
			c1.145-0.95,2.787-1.434,4.463-1.434C169.536,5.108,170.727,5.495,171.211,5.527z"/>
		<path fill="#FFFEF9" d="M185.413,10.635c0,3.512-2.352,5.623-5.816,5.623c-3.238,0-5.592-2.127-5.592-5.494
			c0-3.191,2.385-5.656,5.754-5.656C183.11,5.108,185.413,7.364,185.413,10.635z M179.629,5.849c-1.982,0-3.047,1.853-3.047,4.544
			c0,1.966,0.693,5.124,3.32,5.124c2.111,0,2.932-2.062,2.932-4.673C182.834,8.088,181.627,5.849,179.629,5.849z"/>
		<path fill="#FFFEF9" d="M188.223,5.881c-0.129-0.129-0.129-0.516,0.049-0.564c0.547,0.033,1.24,0.049,2.029,0.049
			c0.531,0,1,0,1.58-0.049c0,1,0.562,1.982,1.271,3.497l1.064,2.272c0.145,0.322,0.725,1.337,0.951,1.74
			c0.209-0.387,0.467-0.887,0.902-1.838l0.82-1.771c0.773-1.66,1.178-2.514,1.531-3.9c0.742,0.064,1.111,0.049,1.596,0.049
			c0.531,0,1.273-0.016,1.854-0.049c0.176,0.098,0.176,0.403,0.047,0.564l-0.467,0.08c-0.66,0.113-0.982,0.307-0.982,1.16
			c0,3.32,0.031,5.061,0.129,7.09c0.031,0.742,0.096,1.129,0.725,1.209l0.516,0.064c0.129,0.129,0.129,0.5-0.031,0.564
			c-0.742-0.033-1.436-0.049-2.225-0.049c-0.725,0-1.611,0.016-2.385,0.049c-0.193-0.081-0.209-0.451-0.049-0.564l0.484-0.064
			c0.74-0.097,0.74-0.29,0.74-1.273l-0.031-4.189V8.122h-0.033c-1.191,2.578-2.48,5.269-3.545,7.992
			c-0.08,0.064-0.193,0.112-0.322,0.112c-0.145,0-0.322-0.032-0.418-0.097c-0.629-1.998-2.611-5.994-3.514-8.089h-0.031
			c-0.064,1.048-0.08,1.757-0.098,2.595c-0.016,1.047-0.031,2.658-0.031,3.625c0,0.806,0.096,1.031,0.74,1.128l0.629,0.097
			c0.129,0.113,0.098,0.483-0.031,0.564C191.09,16.016,190.399,16,189.786,16c-0.516,0-1.127,0.016-1.771,0.049
			c-0.211-0.064-0.211-0.484-0.064-0.564l0.289-0.049c0.822-0.145,0.918-0.241,1.016-1.24c0.08-0.789,0.129-2.191,0.225-3.723
			c0.064-1.079,0.098-2.385,0.098-3.254c0-0.919-0.355-1.16-1-1.273L188.223,5.881z"/>
		<path fill="#FFFEF9" d="M208.067,13.648c0,1.515,0.096,1.628,0.838,1.757l0.451,0.08c0.129,0.097,0.111,0.467-0.018,0.564
			C208.469,16.016,207.68,16,206.922,16c-0.773,0-1.58,0.016-2.449,0.049c-0.129-0.098-0.129-0.468,0-0.564l0.451-0.08
			c0.74-0.129,0.838-0.242,0.838-1.757v-5.93c0-1.515-0.098-1.628-0.838-1.757l-0.451-0.08c-0.129-0.097-0.129-0.467,0-0.564
			c0.869,0.033,1.676,0.049,2.449,0.049c0.758,0,1.562-0.016,2.434-0.049c0.129,0.098,0.129,0.468,0,0.564l-0.451,0.08
			c-0.742,0.129-0.838,0.242-0.838,1.757V13.648z"/>
		<path fill="#FFFEF9" d="M221.895,5.527c0,0.29,0.049,1.579,0.193,2.514c-0.064,0.193-0.5,0.258-0.613,0.112
			c-0.434-1.498-1.465-2.304-3.029-2.304c-1.787,0-3.705,1.53-3.705,4.737s1.854,4.931,3.787,4.931c1.949,0,2.852-1.401,3.287-2.497
			c0.129-0.129,0.516-0.081,0.611,0.112c-0.113,1.192-0.387,2.159-0.611,2.53c-0.871,0.241-2.016,0.596-3.271,0.596
			c-1.58,0-3.191-0.371-4.334-1.225c-1.16-0.887-2.047-2.224-2.047-4.222c0-1.966,0.838-3.352,1.949-4.271
			c1.145-0.95,2.787-1.434,4.463-1.434C220.219,5.108,221.411,5.495,221.895,5.527z"/>
		<path fill="#FFFEF9" d="M227.862,16.258c-1.482,0-2.4-0.419-2.738-0.612c-0.307-0.354-0.516-1.515-0.516-2.61
			c0.111-0.209,0.482-0.226,0.611-0.049c0.322,1.048,1.402,2.53,2.771,2.53c1.193,0,1.74-0.821,1.74-1.628
			c0-1.305-1.225-2.078-2.191-2.562c-1.16-0.58-2.434-1.547-2.434-3.142c-0.016-1.821,1.402-3.078,3.738-3.078
			c0.533,0,1.193,0.064,1.838,0.258c0.209,0.064,0.354,0.097,0.547,0.129c0.129,0.354,0.291,1.225,0.291,2.305
			c-0.08,0.193-0.484,0.209-0.629,0.048c-0.273-0.821-0.967-1.998-2.127-1.998c-1.062,0-1.643,0.692-1.643,1.499
			c0,0.74,0.66,1.418,1.465,1.836l1.064,0.564c0.998,0.531,2.271,1.467,2.271,3.238C231.922,14.969,230.295,16.258,227.862,16.258z"
			/>
	</g>
</g>
<g>
</g>
<g>
</g>
<g>
</g>
<g>
</g>
<g>
</g>
<g>
</g>
</svg>
