<?xml version="1.0" encoding="utf-8"?>
<!-- Generator: Adobe Illustrator 16.0.0, SVG Export Plug-In . SVG Version: 6.00 Build 0)  -->
<!DOCTYPE svg PUBLIC "-//W3C//DTD SVG 1.1//EN" "http://www.w3.org/Graphics/SVG/1.1/DTD/svg11.dtd">
<svg version="1.1" id="Layer_1" xmlns="http://www.w3.org/2000/svg" xmlns:xlink="http://www.w3.org/1999/xlink" x="0px" y="0px"
	 width="190.174px" height="84.627px" viewBox="0 0 190.174 84.627" enable-background="new 0 0 190.174 84.627"
	 xml:space="preserve">
<rect fill="#A71738" width="29.673" height="84.627"/>
<polyline fill="#FFFFFF" points="0,32.544 12.527,52.731 29.319,0.294 29.399,0 29.668,0 29.652,3.356 14.054,52.167 29.673,33.543 
	29.652,34.606 14.574,52.497 29.652,44.231 29.652,45.481 14.152,53.981 29.652,65.231 29.652,67.294 12.34,54.606 0,56.606 
	0,55.731 12.102,53.872 0,34.294 "/>
<g>
	<path fill-rule="evenodd" clip-rule="evenodd" fill="#80979D" d="M101.332,37.154c0.338,0,0.627,0,0.932,0c0,3.761,0,7.508,0,11.3
		c-0.318,0-0.648,0.012-0.973-0.012c-0.074-0.004-0.152-0.134-0.209-0.218c-1.984-3.062-3.965-6.126-5.947-9.188
		c-0.059-0.088-0.117-0.178-0.221-0.332c0,3.285,0,6.498,0,9.73c-0.328,0-0.625,0-0.94,0c0-3.754,0-7.507,0-11.293
		c0.327,0,0.647-0.018,0.964,0.013c0.094,0.007,0.191,0.141,0.254,0.238c1.467,2.255,2.93,4.514,4.393,6.773
		c0.518,0.803,1.035,1.605,1.555,2.408c0.045,0.069,0.098,0.135,0.193,0.266C101.332,43.571,101.332,40.374,101.332,37.154z"/>
	<path fill-rule="evenodd" clip-rule="evenodd" fill="#80979D" d="M42.278,48.452c0-3.79,0-7.535,0-11.293
		c0.047-0.008,0.083-0.02,0.12-0.02c1.406,0,2.815-0.067,4.217,0.017c2.357,0.139,3.953,1.334,4.431,3.88
		c0.27,1.435,0.244,2.878-0.256,4.273c-0.635,1.766-1.941,2.748-3.759,3.012c-0.901,0.131-1.827,0.104-2.743,0.127
		C43.626,48.466,42.964,48.452,42.278,48.452z M43.257,47.515c1.151,0,2.275,0.065,3.389-0.016c1.577-0.117,2.667-0.964,3.179-2.481
		c0.46-1.368,0.475-2.765,0.128-4.153c-0.449-1.801-1.496-2.708-3.327-2.838c-1.098-0.078-2.204-0.03-3.306-0.036
		c-0.016,0-0.034,0.02-0.063,0.037C43.257,41.189,43.257,44.359,43.257,47.515z"/>
	<path fill-rule="evenodd" clip-rule="evenodd" fill="#A71738" d="M42.275,11.622c0-3.788,0-7.535,0-11.299
		c0.076-0.006,0.141-0.016,0.207-0.016c1.348,0,2.697-0.037,4.042,0.013c1.346,0.05,2.569,0.459,3.476,1.538
		c0.646,0.77,0.976,1.684,1.104,2.664c0.149,1.146,0.137,2.293-0.149,3.427c-0.497,1.962-1.91,3.283-3.924,3.545
		c-0.924,0.12-1.867,0.1-2.801,0.125C43.585,11.635,42.942,11.622,42.275,11.622z M43.255,10.775
		c1.207-0.036,2.392,0.002,3.56-0.122c1.407-0.146,2.44-0.918,2.934-2.272c0.604-1.651,0.593-3.332-0.002-4.984
		c-0.355-0.985-1.032-1.698-2.064-2c-1.452-0.423-2.938-0.223-4.427-0.209C43.255,4.357,43.255,7.528,43.255,10.775z"/>
	<path fill-rule="evenodd" clip-rule="evenodd" fill="#A71738" d="M51.015,21.852c-0.324,0.072-0.615,0.138-0.917,0.207
		c-0.039-0.106-0.069-0.188-0.098-0.268c-0.533-1.498-1.533-2.199-3.124-2.182c-1.697,0.017-2.881,0.836-3.512,2.386
		c-0.703,1.729-0.716,3.513-0.069,5.257c0.716,1.929,2.322,2.649,4.203,2.494c0.912-0.074,1.785-0.294,2.565-0.807
		c0.174-0.116,0.246-0.236,0.243-0.448c-0.012-0.849-0.004-1.7-0.005-2.548c-0.001-0.095-0.009-0.19-0.014-0.312
		c-1.072,0-2.122,0-3.19,0c0-0.299,0-0.568,0-0.863c1.368,0,2.737,0,4.124,0c0.004,0.086,0.013,0.172,0.014,0.257
		c0.001,1.298,0.006,2.597-0.008,3.895c-0.001,0.132-0.082,0.301-0.182,0.385c-0.959,0.804-2.094,1.163-3.32,1.294
		c-0.755,0.082-1.5,0.045-2.234-0.146c-1.749-0.454-2.837-1.604-3.312-3.302c-0.517-1.849-0.513-3.71,0.262-5.502
		c0.823-1.903,2.319-2.846,4.381-2.894c0.828-0.018,1.636,0.091,2.371,0.507C50.188,19.826,50.702,20.741,51.015,21.852z"/>
	<path fill-rule="evenodd" clip-rule="evenodd" fill="#A71738" d="M147.827,28.91c-0.491,0.358-0.916,0.8-1.433,1.019
		c-1.773,0.753-4.207,0.202-4.79-2.555c-0.243-1.161-0.19-2.312,0.289-3.416c0.978-2.251,3.762-2.503,5.21-1.4
		c0.236,0.181,0.438,0.406,0.692,0.646c0-0.347,0-0.662,0-0.994c0.323,0,0.61,0,0.934,0c0,0.104,0,0.199,0,0.293
		c0,2.558,0.008,5.117-0.008,7.676c-0.004,0.424-0.064,0.861-0.188,1.265c-0.479,1.569-1.51,2.012-2.819,2.128
		c-0.749,0.067-1.503,0.024-2.228-0.222c-0.999-0.34-1.58-1.025-1.713-2.123c0.266,0,0.516-0.009,0.766,0.005
		c0.055,0.004,0.139,0.08,0.154,0.135c0.235,0.835,0.824,1.242,1.645,1.371c0.623,0.1,1.243,0.101,1.859-0.058
		c0.96-0.247,1.419-0.926,1.529-1.851C147.808,30.183,147.798,29.529,147.827,28.91z M147.806,25.982
		c0-0.243,0.014-0.487-0.002-0.731c-0.043-0.718-0.315-1.325-0.86-1.822c-1.305-1.182-3.65-0.871-4.245,1.088
		c-0.271,0.896-0.297,1.798-0.115,2.71c0.125,0.617,0.389,1.168,0.871,1.585c1.204,1.041,3.154,0.67,3.959-0.736
		C147.786,27.422,147.847,26.713,147.806,25.982z"/>
	<path fill-rule="evenodd" clip-rule="evenodd" fill="#80979D" d="M47.832,61.176c0.779,1.678,1.578,3.396,2.397,5.159
		c-0.38,0-0.708,0.014-1.035-0.012c-0.078-0.004-0.173-0.129-0.215-0.22c-0.679-1.49-1.356-2.981-2.018-4.478
		c-0.103-0.234-0.208-0.293-0.47-0.283c-0.965,0.041-1.932,0.039-2.898,0.053c-0.114,0.003-0.229,0-0.376,0c0,1.658,0,3.285,0,4.924
		c-0.33,0-0.626,0-0.939,0c0-3.758,0-7.504,0-11.274c0.068-0.009,0.141-0.024,0.214-0.024c1.26,0,2.521-0.025,3.779,0.016
		c0.546,0.019,1.106,0.126,1.63,0.288c1.06,0.331,1.751,1.024,1.889,2.178c0.12,1.015,0.03,1.992-0.705,2.763
		C48.745,60.622,48.28,60.857,47.832,61.176z M43.228,60.499c1.115,0,2.196,0.01,3.278-0.007c0.278-0.004,0.562-0.069,0.833-0.145
		c0.692-0.191,1.227-0.593,1.377-1.325c0.092-0.452,0.124-0.932,0.086-1.392c-0.064-0.816-0.549-1.334-1.335-1.549
		c-0.308-0.084-0.628-0.16-0.945-0.17c-1.034-0.033-2.068-0.035-3.103-0.047c-0.064,0-0.129,0.021-0.191,0.033
		C43.228,57.438,43.228,58.96,43.228,60.499z"/>
	<path fill-rule="evenodd" clip-rule="evenodd" fill="#A71738" d="M75.835,11.646c-0.31,0-0.59,0-0.904,0
		c-0.005-0.111-0.014-0.224-0.014-0.335c-0.002-1.681,0.002-3.36-0.004-5.039c0-0.282-0.027-0.565-0.069-0.844
		c-0.188-1.25-1.177-1.512-2.074-1.281c-0.996,0.258-2.18,1.251-2.134,2.738c0.043,1.464,0.009,2.93,0.009,4.394
		c0,0.115,0,0.23,0,0.364c-0.319,0-0.606,0-0.91,0c0-2.707,0-5.406,0-8.125c0.295,0,0.583,0,0.905,0c0,0.396,0,0.79,0,1.085
		c0.198-0.158,0.439-0.336,0.664-0.533c0.817-0.717,1.743-1.003,2.816-0.742c0.655,0.159,1.091,0.574,1.392,1.155
		c0.04,0.078,0.072,0.159,0.11,0.238c0.003,0.008,0.014,0.012,0.049,0.037c0.103-0.115,0.206-0.236,0.316-0.351
		c0.934-0.978,2.05-1.39,3.391-1.073c0.915,0.216,1.437,0.813,1.598,1.73c0.043,0.247,0.061,0.502,0.062,0.755
		c0.005,1.826,0.003,3.651,0.003,5.478c0,0.105,0,0.213,0,0.34c-0.309,0-0.604,0-0.934,0c0-0.111,0-0.215,0-0.32
		c0-1.739,0.002-3.476-0.002-5.215c-0.001-0.252-0.021-0.507-0.064-0.756c-0.136-0.798-0.568-1.186-1.375-1.257
		c-1.193-0.106-2.426,0.677-2.735,1.759c-0.066,0.23-0.091,0.479-0.092,0.72c-0.008,1.573-0.004,3.144-0.004,4.717
		C75.835,11.402,75.835,11.517,75.835,11.646z"/>
	<path fill-rule="evenodd" clip-rule="evenodd" fill="#A71738" d="M188.87,30.349c-0.308,0-0.586,0-0.905,0c0-0.367,0-0.729,0-1.093
		c-0.024-0.012-0.048-0.023-0.07-0.034c-0.205,0.213-0.397,0.44-0.618,0.64c-1.325,1.196-4.324,1.149-5.243-1.381
		c-0.591-1.623-0.581-3.261,0.21-4.825c1.1-2.18,4.258-2.195,5.476-0.669c0.055,0.068,0.119,0.127,0.226,0.244
		c0-1.427,0-2.793,0-4.173c0.33,0,0.616,0,0.926,0C188.87,22.815,188.87,26.567,188.87,30.349z M188.004,26.248
		c0-0.224,0.008-0.45-0.002-0.674c-0.041-0.842-0.258-1.587-0.936-2.183c-1.23-1.077-3.531-0.891-4.155,1.102
		c-0.345,1.098-0.369,2.207-0.09,3.313c0.15,0.604,0.442,1.146,0.957,1.537c1.145,0.865,2.951,0.471,3.758-0.812
		C187.979,27.826,188.026,27.045,188.004,26.248z"/>
	<path fill-rule="evenodd" clip-rule="evenodd" fill="#A71738" d="M82.292,23.202c0-1.406,0-2.761,0-4.138c0.31,0,0.605,0,0.917,0
		c0,3.758,0,7.51,0,11.277c-0.302,0-0.591,0-0.917,0c0-0.365,0-0.727,0-1.131c-0.24,0.234-0.434,0.434-0.641,0.622
		c-1.371,1.254-4.426,1.183-5.334-1.467c-0.474-1.381-0.473-2.787,0.01-4.163c0.902-2.572,3.771-2.707,5.195-1.7
		C81.787,22.69,82.008,22.941,82.292,23.202z M82.34,26.238c0-0.223,0.008-0.448-0.001-0.672c-0.041-0.855-0.27-1.607-0.965-2.2
		c-1.219-1.04-3.488-0.866-4.121,1.107c-0.356,1.105-0.376,2.224-0.092,3.34c0.153,0.604,0.445,1.146,0.96,1.533
		c1.148,0.863,2.954,0.462,3.756-0.823C82.316,27.817,82.361,27.035,82.34,26.238z"/>
	<path fill-rule="evenodd" clip-rule="evenodd" fill="#80979D" d="M151.156,59.648c0-1.451,0-2.813,0-4.188c0.313,0,0.603,0,0.912,0
		c0,3.756,0,7.508,0,11.281c-0.291,0-0.579,0-0.904,0c0-0.354,0-0.72,0-1.083c-0.023-0.012-0.047-0.025-0.07-0.035
		c-0.205,0.215-0.399,0.442-0.619,0.641c-1.323,1.197-4.318,1.148-5.246-1.379c-0.577-1.58-0.569-3.186,0.156-4.724
		c1.093-2.311,4.335-2.309,5.552-0.754C150.984,59.47,151.041,59.522,151.156,59.648z M151.202,62.663
		c0-0.234,0.01-0.468-0.002-0.703c-0.04-0.854-0.273-1.604-0.97-2.196c-1.22-1.035-3.49-0.857-4.117,1.117
		c-0.354,1.108-0.375,2.226-0.088,3.341c0.152,0.603,0.446,1.145,0.965,1.53c1.149,0.86,2.951,0.456,3.752-0.832
		C151.176,64.222,151.226,63.449,151.202,62.663z"/>
	<path fill-rule="evenodd" clip-rule="evenodd" fill="#80979D" d="M110.885,48.243c-0.312,0-0.594,0-0.914,0
		c0-0.351,0-0.695,0-0.983c-0.48,0.304-0.928,0.684-1.445,0.891c-1.139,0.453-2.287,0.428-3.365-0.23
		c-0.443-0.273-0.713-0.688-0.83-1.192c-0.393-1.67,0.4-2.923,2.133-3.27c0.75-0.15,1.525-0.184,2.291-0.243
		c0.385-0.029,0.773-0.006,1.184-0.006c0.01-0.681-0.023-1.268-0.316-1.81c-0.211-0.389-0.557-0.594-0.971-0.687
		c-0.627-0.142-1.26-0.13-1.883,0.019c-0.648,0.156-1.084,0.551-1.275,1.226c-0.283-0.04-0.557-0.078-0.852-0.12
		c0.191-0.931,0.742-1.518,1.605-1.788c0.988-0.306,1.996-0.333,2.994-0.03c0.959,0.29,1.432,0.991,1.588,1.94
		c0.041,0.248,0.062,0.504,0.064,0.756c0.006,1.768,0.002,3.535,0.002,5.3C110.895,48.082,110.889,48.15,110.885,48.243z
		 M109.988,43.9c-1.215,0.09-2.383-0.002-3.502,0.364c-0.693,0.225-1.16,0.652-1.258,1.418c-0.121,0.957,0.361,1.694,1.23,1.857
		c0.625,0.12,1.254,0.082,1.846-0.123c0.754-0.263,1.404-0.721,1.562-1.557C109.984,45.238,109.949,44.586,109.988,43.9z"/>
	<path fill-rule="evenodd" clip-rule="evenodd" fill="#80979D" d="M59.196,48.243c-0.315,0-0.596,0-0.915,0c0-0.351,0-0.695,0-0.983
		c-0.482,0.304-0.929,0.684-1.446,0.891c-1.14,0.453-2.288,0.428-3.366-0.23c-0.446-0.273-0.712-0.688-0.831-1.192
		c-0.391-1.672,0.402-2.923,2.133-3.27c0.75-0.15,1.526-0.184,2.293-0.243c0.384-0.029,0.774-0.006,1.183-0.006
		c0.009-0.681-0.022-1.268-0.316-1.81c-0.21-0.389-0.559-0.594-0.972-0.687c-0.627-0.142-1.259-0.13-1.883,0.019
		c-0.648,0.157-1.087,0.548-1.274,1.226c-0.275-0.039-0.541-0.073-0.849-0.117c0.126-0.692,0.476-1.214,1.07-1.553
		c0.803-0.456,1.689-0.524,2.582-0.441c0.429,0.041,0.869,0.144,1.267,0.308c0.787,0.325,1.133,1.003,1.265,1.805
		c0.042,0.249,0.064,0.504,0.065,0.756c0.005,1.768,0.003,3.535,0.002,5.3C59.206,48.082,59.2,48.15,59.196,48.243z M58.249,43.94
		c-0.7-0.032-2.664,0.062-3.299,0.268c-0.745,0.239-1.308,0.63-1.411,1.484c-0.115,0.957,0.372,1.692,1.239,1.852
		c0.619,0.11,1.238,0.08,1.819-0.125c0.885-0.31,1.561-0.866,1.645-1.884C58.285,45.015,58.249,44.485,58.249,43.94z"/>
	<path fill-rule="evenodd" clip-rule="evenodd" fill="#80979D" d="M144.477,43.225c-0.098-0.579-0.141-1.054-0.264-1.509
		c-0.152-0.554-0.562-0.921-1.125-0.98c-0.602-0.063-1.227-0.07-1.826,0.014c-0.674,0.097-1.123,0.543-1.316,1.227
		c-0.285-0.041-0.553-0.08-0.842-0.123c0.129-0.688,0.473-1.208,1.064-1.545c0.803-0.458,1.688-0.503,2.58-0.455
		c0.137,0.006,0.273,0.022,0.406,0.046c1.627,0.285,2.137,1.228,2.178,2.533c0.064,1.901,0.02,3.804,0.02,5.708
		c0,0.03-0.006,0.058-0.014,0.107c-0.295,0-0.588,0-0.91,0c0-0.349,0-0.688,0-1.077c-0.205,0.183-0.361,0.335-0.529,0.478
		c-1.135,0.95-3.098,1.083-4.275,0.296c-0.441-0.3-0.723-0.703-0.84-1.222c-0.375-1.662,0.412-2.897,2.131-3.248
		c0.738-0.15,1.508-0.184,2.262-0.243C143.572,43.201,143.971,43.225,144.477,43.225z M144.396,43.869
		c-1.076,0.106-2.129,0.156-3.162,0.331c-0.957,0.162-1.426,0.684-1.539,1.488c-0.139,0.953,0.346,1.696,1.211,1.865
		c0.635,0.124,1.277,0.09,1.873-0.125c0.857-0.315,1.525-0.862,1.607-1.855C144.432,45.042,144.396,44.505,144.396,43.869z"/>
	<path fill-rule="evenodd" clip-rule="evenodd" fill="#80979D" d="M82.038,61.776c-0.103-0.589-0.152-1.074-0.28-1.536
		c-0.146-0.532-0.548-0.84-1.081-0.961c-0.637-0.143-1.277-0.131-1.912,0.023c-0.649,0.158-1.071,0.569-1.262,1.224
		c-0.284-0.042-0.551-0.079-0.841-0.121c0.129-0.689,0.474-1.211,1.063-1.546c0.802-0.458,1.686-0.506,2.581-0.456
		c0.146,0.006,0.293,0.024,0.436,0.054c1.396,0.279,2.112,1.031,2.151,2.464c0.053,1.95,0.014,3.902,0.014,5.874
		c-0.303,0-0.599,0-0.92,0c0-0.347,0-0.684,0-1.075c-0.203,0.184-0.36,0.338-0.527,0.476c-1.136,0.952-3.099,1.087-4.275,0.298
		c-0.444-0.298-0.723-0.703-0.841-1.22c-0.377-1.662,0.408-2.897,2.128-3.249c0.741-0.151,1.507-0.183,2.264-0.244
		C81.13,61.749,81.53,61.776,82.038,61.776z M81.955,62.419c-1.077,0.107-2.13,0.158-3.162,0.333c-0.96,0.16-1.425,0.684-1.54,1.486
		c-0.137,0.953,0.347,1.698,1.211,1.867c0.637,0.123,1.279,0.09,1.876-0.129c0.855-0.313,1.523-0.86,1.605-1.853
		C81.99,63.592,81.955,63.053,81.955,62.419z"/>
	<path fill-rule="evenodd" clip-rule="evenodd" fill="#80979D" d="M159.362,61.773c0.008-0.689-0.021-1.286-0.331-1.833
		c-0.213-0.375-0.554-0.57-0.955-0.662c-0.627-0.143-1.259-0.131-1.884,0.018c-0.647,0.156-1.086,0.552-1.278,1.228
		c-0.279-0.04-0.553-0.077-0.85-0.119c0.198-0.942,0.753-1.53,1.633-1.796c0.981-0.299,1.978-0.323,2.967-0.023
		c0.959,0.289,1.433,0.99,1.589,1.938c0.04,0.25,0.064,0.503,0.064,0.757c0.006,1.766,0.004,3.532,0.004,5.3
		c0,0.066-0.006,0.133-0.01,0.218c-0.302,0-0.589,0-0.916,0c0-0.341,0-0.684,0-0.974c-0.481,0.304-0.93,0.684-1.444,0.891
		c-1.138,0.454-2.285,0.43-3.365-0.23c-0.446-0.271-0.715-0.688-0.833-1.19c-0.393-1.672,0.4-2.923,2.133-3.271
		c0.749-0.153,1.525-0.183,2.291-0.244C158.563,61.75,158.953,61.773,159.362,61.773z M159.411,62.467
		c-1.207,0.088-2.362,0-3.475,0.353c-0.703,0.225-1.185,0.65-1.282,1.428c-0.121,0.957,0.362,1.696,1.228,1.859
		c0.63,0.117,1.257,0.08,1.849-0.127c0.753-0.261,1.403-0.718,1.562-1.555C159.409,63.804,159.376,63.15,159.411,62.467z"/>
	<path fill-rule="evenodd" clip-rule="evenodd" fill="#A71738" d="M58.663,6.466c0.01-0.602-0.025-1.16-0.277-1.684
		c-0.206-0.43-0.567-0.662-1.014-0.761c-0.628-0.141-1.26-0.13-1.884,0.022c-0.649,0.157-1.083,0.552-1.272,1.223
		c-0.275-0.038-0.542-0.074-0.844-0.116c0.118-0.673,0.452-1.187,1.022-1.524c0.823-0.488,1.736-0.545,2.661-0.472
		c0.628,0.05,1.231,0.19,1.731,0.615c0.587,0.502,0.803,1.189,0.816,1.908c0.036,1.932,0.014,3.865,0.014,5.797
		c0,0.018-0.012,0.035-0.025,0.068c-0.283,0-0.57,0-0.897,0c0-0.345,0-0.688,0-1.061c-0.282,0.235-0.512,0.459-0.771,0.64
		c-1.131,0.789-2.94,0.836-4.018,0.125c-0.445-0.295-0.73-0.698-0.851-1.214c-0.389-1.67,0.404-2.919,2.137-3.266
		c0.751-0.151,1.527-0.176,2.292-0.245C57.868,6.488,58.257,6.484,58.663,6.466z M58.656,7.165c-1.065,0.104-2.107,0.157-3.133,0.32
		c-0.959,0.153-1.45,0.69-1.564,1.501c-0.135,0.954,0.352,1.697,1.217,1.863c0.637,0.122,1.279,0.09,1.875-0.13
		c0.842-0.312,1.511-0.847,1.597-1.828C58.695,8.352,58.656,7.804,58.656,7.165z"/>
	<path fill-rule="evenodd" clip-rule="evenodd" fill="#A71738" d="M88.778,6.333c0.011-0.604-0.024-1.161-0.277-1.684
		c-0.207-0.431-0.567-0.662-1.015-0.762c-0.627-0.139-1.259-0.129-1.883,0.023c-0.647,0.157-1.085,0.55-1.27,1.223
		c-0.278-0.038-0.544-0.074-0.846-0.116c0.117-0.674,0.452-1.187,1.022-1.526c0.823-0.486,1.736-0.542,2.661-0.471
		c0.628,0.05,1.232,0.191,1.731,0.616c0.587,0.501,0.802,1.188,0.816,1.908c0.037,1.931,0.014,3.864,0.014,5.796
		c0,0.019-0.013,0.036-0.025,0.068c-0.283,0-0.571,0-0.897,0c0-0.346,0-0.688,0-1.105c-0.482,0.519-0.971,0.899-1.578,1.087
		c-1.116,0.347-2.209,0.341-3.234-0.298c-0.444-0.276-0.711-0.69-0.829-1.195c-0.388-1.669,0.406-2.918,2.139-3.265
		c0.75-0.151,1.527-0.176,2.293-0.245C87.985,6.355,88.373,6.352,88.778,6.333z M88.778,7.116c-0.725-0.029-2.656,0.06-3.299,0.267
		c-0.746,0.243-1.309,0.634-1.411,1.487c-0.114,0.959,0.373,1.692,1.24,1.849c0.619,0.112,1.238,0.082,1.819-0.123
		c0.886-0.312,1.561-0.868,1.643-1.884C88.815,8.188,88.778,7.66,88.778,7.116z"/>
	<path fill-rule="evenodd" clip-rule="evenodd" fill="#80979D" d="M75.059,64.502c-0.242,1.308-1.145,2.193-2.441,2.332
		c-0.613,0.066-1.255,0.08-1.858-0.027c-1.331-0.233-2.147-1.112-2.517-2.372c-0.378-1.297-0.367-2.608,0.11-3.883
		c0.616-1.648,2.062-2.48,3.818-2.289c1.249,0.138,2.174,0.699,2.674,1.876c0.36,0.844,0.383,1.737,0.336,2.671
		c-0.118,0-0.222,0-0.326,0c-1.817,0-3.633,0-5.449,0c-0.551,0-0.473-0.022-0.436,0.447c0.077,0.97,0.399,1.823,1.216,2.426
		c0.831,0.613,2.404,0.617,3.238,0.01c0.346-0.251,0.56-0.596,0.679-0.998c0.044-0.15,0.114-0.202,0.266-0.194
		C74.593,64.512,74.816,64.502,75.059,64.502z M74.255,61.999c-0.06-1.052-0.185-2.056-1.159-2.634
		c-0.915-0.542-1.899-0.524-2.81,0.02c-0.967,0.574-1.205,1.56-1.322,2.614C70.734,61.999,72.469,61.999,74.255,61.999z"/>
	<path fill-rule="evenodd" clip-rule="evenodd" fill="#80979D" d="M58.781,64.167c-0.223,1.29-1.141,2.16-2.434,2.344
		c-0.681,0.098-1.361,0.113-2.032-0.062c-1.25-0.327-2.015-1.169-2.355-2.373c-0.372-1.315-0.357-2.645,0.147-3.936
		c0.615-1.573,2.072-2.399,3.755-2.218c1.285,0.14,2.233,0.713,2.73,1.929c0.339,0.828,0.365,1.706,0.312,2.624
		c-0.123,0-0.237,0-0.35,0c-1.856,0-3.711,0.006-5.566-0.004c-0.264-0.002-0.325,0.067-0.306,0.328
		c0.073,1.006,0.367,1.896,1.204,2.527c0.837,0.635,2.408,0.648,3.26,0.033c0.347-0.249,0.56-0.594,0.681-0.996
		c0.044-0.145,0.106-0.208,0.262-0.198C58.313,64.177,58.538,64.167,58.781,64.167z M52.688,61.658c1.773,0,3.516,0,5.296,0
		c-0.028-0.294-0.037-0.564-0.083-0.831c-0.142-0.811-0.453-1.534-1.25-1.895c-0.918-0.416-1.851-0.396-2.708,0.16
		C53.032,59.685,52.806,60.64,52.688,61.658z"/>
	<path fill-rule="evenodd" clip-rule="evenodd" fill="#80979D" d="M87.995,48.457c-0.31,0-0.59,0-0.905,0c0-0.125,0-0.237,0-0.351
		c-0.006-1.721-0.003-3.439-0.022-5.155c-0.006-0.539-0.095-1.078-0.464-1.51c-0.463-0.54-1.088-0.586-1.742-0.531
		c-1.012,0.084-2.192,0.961-2.461,1.867c-0.084,0.282-0.12,0.592-0.122,0.889c-0.012,1.475-0.005,2.95-0.005,4.424
		c0,0.114,0,0.229,0,0.363c-0.32,0-0.607,0-0.91,0c0-3.762,0-7.515,0-11.283c0.302,0,0.588,0,0.901,0c0,1.454,0,2.896,0,4.413
		c0.107-0.115,0.168-0.179,0.228-0.245c0.977-1.083,2.183-1.503,3.612-1.206c1.019,0.214,1.642,0.891,1.813,1.928
		c0.054,0.326,0.093,0.658,0.094,0.987c0.009,1.729,0.005,3.457,0.004,5.186C88.016,48.3,88.004,48.365,87.995,48.457z"/>
	<path fill-rule="evenodd" clip-rule="evenodd" fill="#80979D" d="M97.939,55.309c0.296,0,0.579,0,0.895,0c0,1.455,0,2.901,0,4.384
		c0.266-0.251,0.479-0.485,0.723-0.686c1.037-0.836,2.212-1.033,3.467-0.638c0.871,0.273,1.292,0.965,1.461,1.818
		c0.067,0.341,0.098,0.696,0.098,1.045c0.01,1.69,0.006,3.38,0.004,5.067c0,0.096-0.011,0.191-0.017,0.3c-0.303,0-0.583,0-0.909,0
		c0-0.11,0-0.224,0-0.335c-0.006-1.729-0.004-3.456-0.024-5.185c-0.006-0.529-0.095-1.057-0.452-1.482
		c-0.468-0.555-1.102-0.601-1.766-0.543c-1.004,0.085-2.188,0.973-2.453,1.875c-0.082,0.277-0.115,0.574-0.117,0.863
		c-0.012,1.485-0.006,2.97-0.006,4.452c0,0.115,0,0.229,0,0.356c-0.319,0-0.601,0-0.902,0
		C97.939,62.844,97.939,59.092,97.939,55.309z"/>
	<path fill-rule="evenodd" clip-rule="evenodd" fill="#A71738" d="M115.934,25.48c-0.556,0.499-1.091,0.97-1.609,1.455
		c-0.076,0.072-0.107,0.222-0.109,0.337c-0.008,0.909-0.004,1.817-0.004,2.725c0,0.106,0,0.211,0,0.337c-0.315,0-0.604,0-0.908,0
		c0-3.752,0-7.506,0-11.276c0.293,0,0.583,0,0.9,0c0,2.274,0,4.543,0,6.894c0.182-0.159,0.312-0.27,0.438-0.383
		c1.165-1.054,2.332-2.107,3.492-3.168c0.171-0.157,0.341-0.231,0.572-0.212c0.253,0.019,0.508,0.004,0.845,0.004
		c-0.991,0.927-1.929,1.805-2.878,2.695c1.078,1.817,2.146,3.615,3.247,5.466c-0.392,0-0.728,0.013-1.061-0.01
		c-0.073-0.004-0.157-0.128-0.206-0.213c-0.836-1.431-1.671-2.864-2.506-4.297C116.084,25.726,116.016,25.62,115.934,25.48z"/>
	<path fill-rule="evenodd" clip-rule="evenodd" fill="#A71738" d="M97.19,0.122c0.298,0,0.578,0,0.89,0c0,2.278,0,4.547,0,6.908
		c0.178-0.157,0.299-0.258,0.416-0.364c1.165-1.055,2.332-2.106,3.492-3.169c0.185-0.17,0.369-0.257,0.623-0.237
		c0.247,0.021,0.499,0.005,0.824,0.005c-0.993,0.93-1.929,1.805-2.88,2.694c1.076,1.812,2.145,3.61,3.244,5.465
		c-0.392,0-0.737,0.014-1.078-0.011c-0.071-0.005-0.147-0.139-0.198-0.228c-0.846-1.447-1.688-2.897-2.533-4.347
		c-0.049-0.083-0.101-0.167-0.17-0.283c-0.406,0.361-0.783,0.742-1.205,1.06c-0.424,0.318-0.567,0.693-0.533,1.219
		c0.048,0.748,0.014,1.503,0.012,2.254c0,0.105-0.01,0.21-0.014,0.327c-0.308,0-0.586,0-0.89,0C97.19,7.658,97.19,3.907,97.19,0.122
		z"/>
	<path fill-rule="evenodd" clip-rule="evenodd" fill="#80979D" d="M120.92,44.168c0.008-0.756,0.131-1.48,0.426-2.173
		c0.744-1.738,2.303-2.329,3.824-2.2c2.338,0.198,3.281,1.901,3.424,3.703c0.074,0.963,0,1.909-0.404,2.804
		c-0.625,1.382-1.719,2.067-3.213,2.147c-0.713,0.037-1.406-0.055-2.045-0.383c-1.141-0.583-1.68-1.588-1.898-2.797
		C120.969,44.907,120.955,44.534,120.92,44.168z M124.781,47.639c1.305-0.019,2.221-0.659,2.6-1.861
		c0.344-1.099,0.348-2.212,0.004-3.311c-0.393-1.25-1.365-1.891-2.777-1.873c-1.16,0.015-2.109,0.759-2.459,1.938
		c-0.275,0.925-0.295,1.866-0.098,2.804C122.375,46.848,123.352,47.658,124.781,47.639z"/>
	<path fill-rule="evenodd" clip-rule="evenodd" fill="#A71738" d="M90.091,26.321c0.01-0.732,0.123-1.438,0.401-2.118
		c0.72-1.765,2.285-2.392,3.842-2.263c2.34,0.194,3.285,1.887,3.429,3.695c0.08,0.963,0.004,1.909-0.397,2.804
		c-0.621,1.384-1.713,2.072-3.208,2.155c-0.722,0.04-1.424-0.056-2.072-0.392c-1.126-0.583-1.658-1.583-1.879-2.778
		C90.139,27.062,90.127,26.689,90.091,26.321z M93.939,29.784c1.294-0.017,2.206-0.634,2.589-1.794
		c0.375-1.134,0.383-2.286,0.01-3.421c-0.4-1.23-1.368-1.852-2.776-1.828c-1.143,0.018-2.093,0.764-2.439,1.926
		c-0.276,0.924-0.296,1.866-0.102,2.805C91.532,28.977,92.52,29.803,93.939,29.784z"/>
	<path fill-rule="evenodd" clip-rule="evenodd" fill="#80979D" d="M123.028,67.023c-1.982-0.002-3.354-1.159-3.685-3.142
		c-0.182-1.104-0.146-2.195,0.283-3.252c0.72-1.764,2.286-2.393,3.841-2.262c2.339,0.194,3.284,1.886,3.434,3.692
		c0.062,0.783,0.027,1.561-0.217,2.312C126.12,66.121,124.869,67.023,123.028,67.023z M123.076,66.213
		c1.292-0.02,2.204-0.635,2.588-1.796c0.374-1.136,0.383-2.285,0.012-3.423c-0.401-1.229-1.369-1.849-2.776-1.827
		c-1.144,0.02-2.095,0.766-2.439,1.927c-0.277,0.926-0.297,1.864-0.104,2.804C120.668,65.402,121.654,66.23,123.076,66.213z"/>
	<path fill-rule="evenodd" clip-rule="evenodd" fill="#A71738" d="M163.54,26.296c-0.004-0.761,0.123-1.493,0.428-2.194
		c0.737-1.699,2.309-2.292,3.821-2.16c2.312,0.203,3.27,1.895,3.409,3.716c0.072,0.963-0.006,1.91-0.411,2.804
		c-0.624,1.367-1.71,2.056-3.192,2.131c-1.219,0.061-2.307-0.242-3.113-1.226c-0.563-0.686-0.818-1.499-0.906-2.37
		C163.552,26.764,163.552,26.529,163.54,26.296z M167.377,29.784c1.312-0.017,2.226-0.652,2.604-1.855
		c0.351-1.108,0.355-2.232-0.002-3.34c-0.401-1.245-1.371-1.875-2.79-1.849c-1.144,0.02-2.089,0.767-2.436,1.932
		c-0.275,0.925-0.295,1.867-0.1,2.805C164.971,28.985,165.953,29.805,167.377,29.784z"/>
	<path fill-rule="evenodd" clip-rule="evenodd" fill="#80979D" d="M177.046,67.023c-2.003,0-3.379-1.167-3.702-3.155
		c-0.178-1.106-0.141-2.198,0.292-3.252c0.734-1.786,2.342-2.385,3.88-2.244c2.282,0.206,3.248,1.886,3.389,3.704
		c0.061,0.791,0.025,1.578-0.23,2.341C180.096,66.135,178.858,67.023,177.046,67.023z M177.087,66.213
		c1.308-0.02,2.224-0.656,2.602-1.859c0.349-1.108,0.354-2.231-0.004-3.34c-0.401-1.244-1.37-1.872-2.792-1.847
		c-1.141,0.021-2.087,0.77-2.435,1.935c-0.274,0.926-0.294,1.867-0.096,2.806C174.681,65.416,175.66,66.23,177.087,66.213z"/>
	<path fill-rule="evenodd" clip-rule="evenodd" fill="#80979D" d="M117.308,60.878c0,0.321,0,0.593,0,0.901c-1.809,0-3.608,0-5.45,0
		c0,1.769,0,3.498,0,5.244c-0.339,0-0.638,0-0.961,0c0-3.75,0-7.504,0-11.276c2.243,0,4.493,0,6.758,0c0,0.275,0,0.546,0,0.855
		c-1.922,0-3.849,0-5.789,0c0,1.44,0,2.842,0,4.275C113.681,60.878,115.484,60.878,117.308,60.878z"/>
	<path fill-rule="evenodd" clip-rule="evenodd" fill="#80979D" d="M66.773,60.009c-0.259,0.06-0.493,0.123-0.73,0.157
		c-0.051,0.008-0.15-0.076-0.172-0.138c-0.345-0.98-1.104-1.312-2.061-1.304c-0.417,0.004-0.841,0.038-1.247,0.127
		c-0.755,0.165-1.146,0.68-1.138,1.413c0.006,0.591,0.252,0.957,0.87,1.127c0.588,0.163,1.203,0.234,1.797,0.375
		c0.575,0.138,1.158,0.266,1.704,0.484c0.603,0.237,0.965,0.715,1.1,1.376c0.254,1.237-0.286,2.292-1.474,2.696
		c-1.155,0.396-2.327,0.358-3.472-0.046c-0.896-0.316-1.447-0.963-1.613-1.914c-0.017-0.094-0.021-0.188-0.034-0.315
		c0.276,0,0.528-0.01,0.779,0.008c0.059,0.004,0.147,0.092,0.163,0.155c0.24,1.032,0.958,1.462,1.952,1.53
		c0.519,0.033,1.052,0.012,1.567-0.064c0.695-0.101,1.172-0.678,1.208-1.349c0.041-0.77-0.256-1.243-1.024-1.455
		c-0.655-0.181-1.336-0.258-2-0.407c-0.425-0.094-0.853-0.203-1.258-0.362c-1.575-0.614-1.465-2.812-0.305-3.58
		c0.815-0.538,1.715-0.665,2.657-0.602c0.347,0.024,0.699,0.081,1.034,0.179C66.017,58.368,66.55,59.028,66.773,60.009z"/>
	<path fill-rule="evenodd" clip-rule="evenodd" fill="#A71738" d="M104.683,28.068c0.257,0,0.501-0.011,0.74,0.008
		c0.068,0.005,0.17,0.096,0.187,0.163c0.22,0.95,0.872,1.417,1.783,1.505c0.585,0.056,1.189,0.028,1.771-0.054
		c0.678-0.097,1.142-0.687,1.173-1.349c0.036-0.76-0.256-1.232-1.006-1.439c-0.663-0.183-1.354-0.263-2.028-0.414
		c-0.425-0.097-0.85-0.208-1.257-0.367c-1.565-0.616-1.458-2.813-0.291-3.58c0.816-0.537,1.719-0.661,2.66-0.597
		c0.337,0.024,0.68,0.076,1.006,0.169c0.954,0.27,1.494,0.929,1.715,1.918c-0.277,0.061-0.548,0.12-0.824,0.181
		c-0.029-0.058-0.058-0.098-0.072-0.142c-0.291-0.866-0.932-1.283-1.811-1.312c-0.501-0.017-1.017,0.019-1.508,0.118
		c-0.758,0.154-1.141,0.68-1.133,1.418c0.009,0.565,0.227,0.917,0.799,1.085c0.604,0.176,1.237,0.256,1.85,0.409
		c0.601,0.148,1.209,0.288,1.781,0.517c0.575,0.227,0.908,0.7,1.037,1.324c0.271,1.304-0.317,2.365-1.585,2.758
		c-1.075,0.332-2.163,0.296-3.227-0.04C105.357,30.005,104.698,29.132,104.683,28.068z"/>
	<path fill-rule="evenodd" clip-rule="evenodd" fill="#A71738" d="M150.455,28.071c0.256,0,0.51-0.011,0.759,0.006
		c0.06,0.004,0.149,0.092,0.163,0.154c0.24,1.029,0.951,1.463,1.952,1.529c0.52,0.036,1.053,0.013,1.567-0.062
		c0.695-0.102,1.171-0.677,1.21-1.348c0.041-0.77-0.257-1.244-1.025-1.456c-0.654-0.181-1.336-0.259-1.999-0.407
		c-0.425-0.095-0.854-0.205-1.259-0.363c-1.574-0.614-1.465-2.811-0.306-3.578c0.816-0.541,1.717-0.667,2.656-0.604
		c0.349,0.024,0.701,0.082,1.034,0.177c0.943,0.27,1.475,0.929,1.699,1.909c-0.255,0.058-0.504,0.122-0.758,0.163
		c-0.041,0.006-0.125-0.081-0.145-0.14c-0.343-0.981-1.104-1.312-2.06-1.304c-0.418,0.003-0.842,0.036-1.247,0.125
		c-0.754,0.165-1.147,0.679-1.14,1.413c0.006,0.592,0.253,0.958,0.871,1.128c0.586,0.162,1.2,0.232,1.795,0.376
		c0.585,0.14,1.178,0.271,1.73,0.494c0.59,0.238,0.941,0.716,1.074,1.364c0.256,1.239-0.285,2.292-1.475,2.698
		c-1.163,0.397-2.346,0.358-3.498-0.057c-0.88-0.318-1.424-0.963-1.588-1.903c-0.01-0.057-0.016-0.115-0.021-0.174
		C150.443,28.176,150.451,28.137,150.455,28.071z"/>
	<path fill-rule="evenodd" clip-rule="evenodd" fill="#A71738" d="M104.685,9.16c0.049-0.009,0.076-0.018,0.106-0.018
		c0.234-0.001,0.509-0.075,0.689,0.024c0.148,0.083,0.185,0.371,0.273,0.567c0.317,0.713,0.93,1.023,1.649,1.084
		c0.576,0.049,1.169,0.026,1.741-0.053c0.679-0.093,1.15-0.674,1.191-1.333c0.046-0.768-0.258-1.237-1.012-1.466
		c-0.438-0.131-0.895-0.191-1.341-0.287c-0.543-0.117-1.094-0.2-1.621-0.364c-0.785-0.243-1.354-0.718-1.456-1.604
		c-0.113-0.969,0.201-1.73,1.057-2.229c0.762-0.443,1.601-0.533,2.461-0.47c0.585,0.045,1.153,0.151,1.668,0.469
		c0.603,0.372,0.865,0.947,1.057,1.619c-0.299,0.064-0.569,0.122-0.842,0.181c-0.028-0.053-0.052-0.085-0.062-0.122
		c-0.313-0.953-1.03-1.333-1.972-1.341c-0.446-0.003-0.9,0.031-1.336,0.123c-0.77,0.161-1.16,0.681-1.15,1.433
		c0.009,0.572,0.258,0.938,0.861,1.105c0.588,0.164,1.202,0.234,1.797,0.379c0.601,0.147,1.209,0.292,1.779,0.521
		c0.575,0.229,0.902,0.707,1.031,1.329c0.268,1.282-0.299,2.322-1.544,2.729c-1.103,0.361-2.218,0.32-3.309-0.033
		C105.338,11.059,104.681,10.165,104.685,9.16z"/>
	<path fill-rule="evenodd" clip-rule="evenodd" fill="#80979D" d="M79.2,41.871c-0.282,0.062-0.551,0.12-0.836,0.182
		c-0.053-0.123-0.101-0.227-0.144-0.333c-0.322-0.79-0.972-1.098-1.761-1.125c-0.482-0.016-0.979,0.019-1.451,0.116
		c-0.881,0.181-1.328,0.918-1.127,1.745c0.104,0.429,0.405,0.677,0.794,0.777c0.601,0.16,1.213,0.275,1.825,0.385
		c0.72,0.13,1.436,0.256,2.059,0.682c0.419,0.286,0.651,0.678,0.755,1.171c0.278,1.3-0.318,2.367-1.587,2.757
		c-1.075,0.331-2.163,0.296-3.226-0.041c-1.083-0.343-1.747-1.222-1.758-2.277c0.257,0,0.517-0.01,0.774,0.008
		c0.057,0.004,0.139,0.098,0.154,0.165c0.225,0.963,0.893,1.421,1.814,1.506c0.566,0.054,1.15,0.025,1.713-0.052
		c0.679-0.094,1.153-0.67,1.197-1.327c0.051-0.768-0.249-1.259-1.007-1.469c-0.663-0.184-1.353-0.266-2.027-0.413
		c-0.37-0.081-0.742-0.166-1.096-0.297c-0.749-0.284-1.234-0.785-1.309-1.631c-0.078-0.886,0.205-1.596,0.961-2.082
		c0.781-0.502,1.658-0.604,2.559-0.533c0.365,0.029,0.736,0.096,1.087,0.201C78.488,40.258,78.98,40.925,79.2,41.871z"/>
	<path fill-rule="evenodd" clip-rule="evenodd" fill="#80979D" d="M137.486,67.021c-0.324,0-0.604,0-0.907,0
		c0-2.706,0-5.402,0-8.125c0.289,0,0.583,0,0.911,0c0,0.401,0,0.794,0,1.252c0.494-0.589,1.005-1.04,1.67-1.293
		c0.762-0.289,1.539-0.339,2.324-0.129c0.969,0.258,1.458,0.953,1.645,1.892c0.064,0.322,0.094,0.657,0.096,0.986
		c0.01,1.719,0.004,3.438,0.004,5.155c0,0.083-0.014,0.169-0.02,0.264c-0.304,0-0.585,0-0.906,0c0-0.122,0-0.235,0-0.349
		c-0.006-1.727-0.002-3.454-0.023-5.181c-0.006-0.531-0.098-1.059-0.458-1.481c-0.47-0.552-1.104-0.596-1.769-0.538
		c-1,0.085-2.185,0.98-2.447,1.881c-0.079,0.277-0.113,0.574-0.115,0.863c-0.01,1.485-0.006,2.968-0.006,4.452
		C137.484,66.784,137.486,66.898,137.486,67.021z"/>
	<path fill-rule="evenodd" clip-rule="evenodd" fill="#80979D" d="M189.148,67.023c-0.317,0-0.596,0-0.903,0
		c0-0.129,0-0.243,0-0.356c-0.008-1.721-0.004-3.437-0.024-5.153c-0.006-0.53-0.095-1.059-0.447-1.486
		c-0.466-0.557-1.101-0.603-1.764-0.547c-1.008,0.083-2.192,0.965-2.456,1.869c-0.083,0.285-0.116,0.593-0.118,0.891
		c-0.016,1.474-0.009,2.948-0.009,4.423c0,0.115,0,0.229,0,0.36c-0.32,0-0.608,0-0.911,0c0-2.714,0-5.411,0-8.128
		c0.299,0,0.586,0,0.904,0c0,0.398,0,0.792,0,1.227c0.272-0.259,0.493-0.501,0.744-0.705c1.043-0.83,2.218-1.02,3.471-0.612
		c0.855,0.277,1.265,0.967,1.433,1.805c0.067,0.335,0.097,0.678,0.099,1.018c0.01,1.716,0.006,3.437,0.004,5.153
		C189.17,66.856,189.156,66.933,189.148,67.023z"/>
	<path fill-rule="evenodd" clip-rule="evenodd" fill="#A71738" d="M62.736,11.653c-0.323,0-0.604,0-0.906,0c0-2.712,0-5.416,0-8.134
		c0.3,0,0.588,0,0.908,0c0,0.409,0,0.803,0,1.215c0.289-0.269,0.53-0.539,0.813-0.75c1.062-0.798,2.241-0.966,3.482-0.516
		c0.81,0.294,1.187,0.975,1.344,1.782c0.065,0.332,0.095,0.676,0.097,1.016c0.01,1.708,0.004,3.417,0.003,5.123
		c0,0.087-0.014,0.172-0.021,0.266c-0.302,0-0.583,0-0.905,0c0-0.12,0-0.232,0-0.344c-0.006-1.729-0.002-3.455-0.023-5.184
		c-0.007-0.528-0.097-1.057-0.457-1.48c-0.468-0.553-1.104-0.597-1.767-0.54c-1.003,0.086-2.187,0.977-2.45,1.88
		c-0.081,0.276-0.113,0.574-0.115,0.863c-0.011,1.483-0.005,2.968-0.005,4.452C62.736,11.414,62.736,11.53,62.736,11.653z"/>
	<path fill-rule="evenodd" clip-rule="evenodd" fill="#80979D" d="M131.443,48.457c-0.324,0-0.611,0-0.914,0c0-2.716,0-5.415,0-8.13
		c0.303,0,0.59,0,0.91,0c0,0.401,0,0.796,0,1.266c0.111-0.126,0.172-0.195,0.234-0.264c0.979-1.081,2.182-1.481,3.615-1.194
		c1.051,0.21,1.592,0.915,1.793,1.912c0.072,0.351,0.1,0.716,0.102,1.075c0.008,1.678,0.004,3.357,0.002,5.037
		c0,0.096-0.012,0.188-0.016,0.298c-0.301,0-0.582,0-0.91,0c0-0.109,0-0.22,0-0.331c-0.006-1.729-0.004-3.457-0.023-5.183
		c-0.006-0.529-0.096-1.059-0.451-1.484c-0.465-0.555-1.1-0.603-1.764-0.547c-1.006,0.085-2.189,0.969-2.453,1.873
		c-0.084,0.284-0.117,0.594-0.119,0.891c-0.012,1.475-0.006,2.95-0.006,4.423C131.443,48.214,131.443,48.328,131.443,48.457z"/>
	<path fill-rule="evenodd" clip-rule="evenodd" fill="#A71738" d="M74.166,30.345c-0.312,0-0.593,0-0.909,0c0-0.125,0-0.238,0-0.352
		c-0.006-1.728-0.003-3.455-0.024-5.181c-0.006-0.521-0.096-1.039-0.442-1.459c-0.462-0.561-1.094-0.612-1.759-0.557
		c-1.013,0.084-2.193,0.957-2.462,1.861c-0.085,0.285-0.122,0.593-0.124,0.891c-0.013,1.474-0.006,2.948-0.006,4.422
		c0,0.115,0,0.23,0,0.366c-0.316,0-0.602,0-0.908,0c0-2.702,0-5.399,0-8.121c0.287,0,0.573,0,0.892,0c0,0.392,0,0.786,0,1.261
		c0.114-0.123,0.176-0.187,0.237-0.253c0.977-1.083,2.179-1.489,3.612-1.207c1.052,0.206,1.597,0.905,1.807,1.902
		c0.071,0.34,0.098,0.696,0.1,1.045c0.01,1.698,0.004,3.396,0.004,5.095C74.183,30.145,74.172,30.231,74.166,30.345z"/>
	<path fill-rule="evenodd" clip-rule="evenodd" fill="#A71738" d="M174.105,30.343c-0.337,0-0.617,0-0.912,0
		c0-2.714,0-5.412,0-8.131c0.297,0,0.583,0,0.904,0c0,0.398,0,0.793,0,1.223c0.262-0.25,0.476-0.484,0.721-0.682
		c1.035-0.838,2.208-1.034,3.465-0.643c0.87,0.272,1.29,0.964,1.462,1.818c0.066,0.33,0.098,0.675,0.1,1.015
		c0.008,1.719,0.004,3.436,0.002,5.154c0,0.076-0.014,0.153-0.021,0.242c-0.3,0-0.587,0-0.904,0c0-0.126,0-0.24,0-0.355
		c-0.006-1.718-0.004-3.435-0.023-5.153c-0.006-0.539-0.096-1.077-0.468-1.506c-0.464-0.537-1.088-0.583-1.742-0.527
		c-1.009,0.085-2.19,0.963-2.457,1.868c-0.084,0.285-0.117,0.594-0.119,0.892c-0.014,1.474-0.006,2.948-0.006,4.422
		C174.105,30.094,174.105,30.209,174.105,30.343z"/>
	<path fill-rule="evenodd" clip-rule="evenodd" fill="#A71738" d="M133.96,30.344c-0.321,0-0.6,0-0.903,0c0-2.708,0-5.414,0-8.135
		c0.298,0,0.582,0,0.903,0c0,0.407,0,0.801,0,1.219c0.291-0.271,0.531-0.54,0.812-0.752c1.062-0.797,2.243-0.966,3.482-0.518
		c0.811,0.293,1.189,0.974,1.348,1.779c0.065,0.333,0.095,0.676,0.097,1.016c0.01,1.709,0.004,3.417,0.002,5.125
		c0,0.085-0.012,0.171-0.018,0.267c-0.301,0-0.583,0-0.908,0c0-0.116,0-0.228,0-0.34c-0.006-1.727-0.002-3.454-0.021-5.182
		c-0.006-0.529-0.097-1.057-0.454-1.482c-0.467-0.554-1.103-0.598-1.766-0.542c-1.005,0.086-2.188,0.974-2.451,1.877
		c-0.081,0.276-0.115,0.575-0.117,0.863c-0.012,1.485-0.006,2.967-0.006,4.452C133.96,30.104,133.96,30.216,133.96,30.344z"/>
	<path fill-rule="evenodd" clip-rule="evenodd" fill="#80979D" d="M67.952,48.457c-0.312,0-0.592,0-0.905,0c0-0.127,0-0.239,0-0.353
		c-0.006-1.719-0.003-3.438-0.023-5.153c-0.006-0.541-0.094-1.079-0.463-1.51c-0.463-0.54-1.088-0.586-1.743-0.531
		c-1.01,0.084-2.191,0.959-2.458,1.865c-0.085,0.284-0.121,0.592-0.124,0.891c-0.011,1.473-0.005,2.948-0.005,4.422
		c0,0.114,0,0.228,0,0.363c-0.319,0-0.606,0-0.91,0c0-2.704,0-5.403,0-8.123c0.291,0,0.578,0,0.896,0c0,0.394,0,0.789,0,1.229
		c0.289-0.273,0.52-0.533,0.791-0.741c1.054-0.809,2.227-0.991,3.476-0.561c0.831,0.286,1.218,0.966,1.386,1.781
		c0.068,0.331,0.098,0.676,0.1,1.015c0.01,1.719,0.004,3.438,0.003,5.152C67.973,48.282,67.96,48.357,67.952,48.457z"/>
	<path fill-rule="evenodd" clip-rule="evenodd" fill="#A71738" d="M122.122,30.344c-0.333,0-0.611,0-0.909,0c0-2.712,0-5.411,0-8.13
		c0.294,0,0.578,0,0.899,0c0,0.396,0,0.79,0,1.228c0.285-0.272,0.518-0.533,0.789-0.741c1.055-0.809,2.228-0.989,3.476-0.558
		c0.831,0.287,1.218,0.966,1.386,1.781c0.067,0.332,0.097,0.677,0.099,1.016c0.01,1.718,0.004,3.436,0.002,5.153
		c0,0.076-0.012,0.152-0.02,0.246c-0.299,0-0.584,0-0.905,0c0-0.122,0-0.236,0-0.351c-0.007-1.716-0.004-3.435-0.024-5.153
		c-0.006-0.539-0.093-1.077-0.464-1.507c-0.463-0.541-1.087-0.586-1.739-0.532c-1.012,0.084-2.192,0.961-2.46,1.865
		c-0.085,0.285-0.12,0.593-0.123,0.892c-0.012,1.474-0.006,2.948-0.006,4.422C122.122,30.09,122.122,30.205,122.122,30.344z"/>
	<path fill-rule="evenodd" clip-rule="evenodd" fill="#A71738" d="M58.682,22.208c0.323,0,0.61,0,0.933,0c0,0.116,0,0.221,0,0.326
		c0,1.661-0.005,3.32,0.005,4.98c0.001,0.31,0.046,0.622,0.101,0.928c0.187,1.048,0.91,1.407,1.91,1.306
		c0.938-0.094,1.652-0.597,2.208-1.344c0.273-0.369,0.388-0.789,0.391-1.235c0.011-1.542,0.008-3.085,0.011-4.628
		c0-0.105,0-0.209,0-0.331c0.319,0,0.608,0,0.916,0c0,2.707,0,5.407,0,8.127c-0.293,0-0.582,0-0.903,0c0-0.396,0-0.798,0-1.202
		c-0.033-0.023-0.065-0.044-0.098-0.065c-0.205,0.228-0.387,0.481-0.618,0.678c-0.991,0.842-2.125,1.057-3.365,0.693
		c-0.828-0.245-1.202-0.891-1.372-1.674c-0.078-0.358-0.111-0.733-0.113-1.102c-0.012-1.699-0.005-3.399-0.005-5.099
		C58.682,22.458,58.682,22.353,58.682,22.208z"/>
	<path fill-rule="evenodd" clip-rule="evenodd" fill="#80979D" d="M128.517,58.621c0.325,0,0.611,0,0.933,0c0,0.121,0,0.225,0,0.331
		c0,1.659-0.006,3.319,0.004,4.979c0.002,0.312,0.048,0.622,0.104,0.927c0.186,1.049,0.914,1.405,1.912,1.306
		c0.936-0.096,1.65-0.602,2.206-1.349c0.272-0.366,0.385-0.789,0.389-1.235c0.01-1.543,0.008-3.083,0.012-4.627
		c0-0.104,0-0.21,0-0.329c0.32,0,0.61,0,0.918,0c0,2.709,0,5.408,0,8.128c-0.298,0-0.585,0-0.908,0c0-0.396,0-0.801,0-1.205
		c-0.032-0.02-0.063-0.04-0.095-0.06c-0.207,0.227-0.389,0.479-0.62,0.677c-0.991,0.842-2.125,1.054-3.365,0.689
		c-0.829-0.245-1.202-0.893-1.37-1.676c-0.077-0.358-0.11-0.734-0.114-1.101c-0.01-1.701-0.004-3.4-0.004-5.098
		C128.517,58.871,128.517,58.764,128.517,58.621z"/>
	<path fill-rule="evenodd" clip-rule="evenodd" fill="#80979D" d="M96.756,60.88c-0.293,0.072-0.572,0.141-0.867,0.215
		c-0.027-0.088-0.055-0.158-0.072-0.232c-0.453-1.813-1.99-2.067-3.227-1.672c-0.746,0.237-1.256,0.76-1.518,1.478
		c-0.477,1.312-0.474,2.642,0.065,3.937c0.384,0.919,1.118,1.4,2.108,1.471c0.291,0.02,0.588,0.01,0.876-0.029
		c0.937-0.126,1.445-0.738,1.73-1.58c0.168-0.499,0.162-0.501,0.695-0.501c0.107,0,0.213,0,0.391,0
		c-0.1,0.343-0.166,0.651-0.279,0.942c-0.488,1.249-1.436,1.887-2.749,1.975c-0.451,0.031-0.923,0.01-1.365-0.084
		c-1.6-0.335-2.392-1.446-2.679-2.964c-0.213-1.126-0.169-2.25,0.263-3.338c0.679-1.721,2.244-2.396,3.861-2.252
		c1.61,0.146,2.438,1.147,2.749,2.449C96.75,60.749,96.75,60.807,96.756,60.88z"/>
	<path fill-rule="evenodd" clip-rule="evenodd" fill="#A71738" d="M89.526,19.02c-0.082,0.331-0.144,0.582-0.195,0.786
		c-0.503,0-0.981-0.057-1.439,0.014c-0.546,0.083-0.872,0.469-0.914,1.029c-0.03,0.432-0.005,0.869-0.005,1.335
		c0.692,0,1.39,0,2.108,0c0,0.27,0,0.508,0,0.782c-0.706,0-1.411,0-2.14,0c0,2.474,0,4.91,0,7.368c-0.31,0-0.596,0-0.92,0
		c0-2.446,0-4.889,0-7.359c-0.433,0-0.828,0-1.247,0c0-0.265,0-0.502,0-0.78c0.4,0,0.803,0,1.259,0c0-0.438-0.021-0.836,0.003-1.231
		c0.075-1.215,0.916-2.025,2.128-2.039C88.604,18.921,89.046,18.985,89.526,19.02z"/>
	<path fill-rule="evenodd" clip-rule="evenodd" fill="#A71738" d="M162.822,19.801c-0.506,0-0.975-0.06-1.425,0.015
		c-0.593,0.099-0.884,0.481-0.939,1.075c-0.029,0.329-0.023,0.662-0.033,0.993c-0.002,0.085,0,0.173,0,0.3c0.725,0,1.431,0,2.151,0
		c0,0.279,0,0.517,0,0.781c-0.713,0-1.413,0-2.146,0c0,2.469,0,4.913,0,7.374c-0.319,0-0.606,0-0.928,0c0-2.459,0-4.904,0-7.375
		c-0.433,0-0.828,0-1.243,0c0-0.264,0-0.502,0-0.769c0.407,0,0.803,0,1.263,0c0-0.435-0.02-0.843,0.004-1.247
		c0.073-1.191,0.918-2.009,2.112-2.023c0.442-0.006,0.885,0.056,1.378,0.09C162.933,19.349,162.872,19.606,162.822,19.801z"/>
	<path fill-rule="evenodd" clip-rule="evenodd" fill="#80979D" d="M163.146,59.451c-0.434,0-0.824,0-1.238,0
		c0-0.253,0-0.491,0-0.769c0.395,0,0.797,0,1.229,0c0-0.769,0-1.498,0-2.248c0.313,0,0.602,0,0.916,0c0,0.726,0,1.453,0,2.218
		c0.783,0,1.537,0,2.316,0c0,0.276,0,0.516,0,0.785c-0.746,0-1.502,0-2.305,0c0,0.123,0,0.218,0,0.31
		c0,1.633-0.006,3.262,0.008,4.894c0.002,0.294,0.062,0.6,0.151,0.884c0.139,0.449,0.456,0.663,0.922,0.665
		c0.213,0,0.427-0.018,0.64-0.049c0.208-0.027,0.414-0.084,0.639-0.131c0.062,0.248,0.12,0.481,0.186,0.745
		c-0.828,0.28-1.649,0.4-2.466,0.067c-0.564-0.229-0.826-0.729-0.907-1.309c-0.06-0.424-0.084-0.855-0.086-1.284
		c-0.012-1.462-0.004-2.927-0.004-4.391C163.146,59.722,163.146,59.604,163.146,59.451z"/>
	<path fill-rule="evenodd" clip-rule="evenodd" fill="#80979D" d="M113.443,40.887c-0.436,0-0.824,0-1.238,0
		c0-0.255,0-0.492,0-0.771c0.395,0,0.797,0,1.229,0c0-0.768,0-1.497,0-2.248c0.316,0,0.604,0,0.918,0c0,0.729,0,1.458,0,2.222
		c0.783,0,1.539,0,2.316,0c0,0.276,0,0.513,0,0.783c-0.748,0-1.506,0-2.305,0c0,0.136,0,0.238,0,0.341
		c0,1.612-0.008,3.221,0.006,4.833c0.004,0.314,0.07,0.638,0.16,0.943c0.127,0.42,0.453,0.64,0.885,0.63
		c0.357-0.006,0.713-0.079,1.068-0.125c0.074-0.01,0.145-0.035,0.238-0.055c0.062,0.256,0.119,0.489,0.186,0.751
		c-0.82,0.274-1.629,0.394-2.438,0.079c-0.582-0.228-0.85-0.733-0.936-1.322c-0.061-0.422-0.084-0.855-0.086-1.284
		c-0.008-1.462-0.004-2.927-0.004-4.392C113.443,41.155,113.443,41.041,113.443,40.887z"/>
	<path fill-rule="evenodd" clip-rule="evenodd" fill="#A71738" d="M92.703,11.415c-0.331,0-0.611,0-0.91,0c0-2.71,0-5.406,0-8.127
		c0.293,0,0.587,0,0.914,0c0,0.396,0,0.779,0,1.255c0.816-1.082,1.794-1.596,3.105-1.358c-0.035,0.283-0.07,0.559-0.104,0.815
		c-0.391,0.035-0.774,0.023-1.137,0.109c-1.073,0.252-1.866,1.293-1.868,2.396c-0.002,1.514,0,3.026,0,4.538
		C92.703,11.159,92.703,11.273,92.703,11.415z"/>
	<path fill-rule="evenodd" clip-rule="evenodd" fill="#80979D" d="M86.044,66.852c-0.332,0-0.611,0-0.91,0c0-2.71,0-5.407,0-8.127
		c0.294,0,0.588,0,0.914,0c0,0.396,0,0.777,0,1.251c0.501-0.649,1.028-1.146,1.76-1.31c0.428-0.093,0.879-0.083,1.356-0.123
		c-0.046,0.361-0.083,0.637-0.115,0.895c-0.391,0.035-0.776,0.023-1.138,0.109c-1.072,0.251-1.866,1.294-1.867,2.397
		c-0.001,1.51,0,3.025,0,4.535C86.044,66.597,86.044,66.711,86.044,66.852z"/>
	<path fill-rule="evenodd" clip-rule="evenodd" fill="#A71738" d="M53.398,30.337c0-2.715,0-5.406,0-8.121c0.302,0,0.596,0,0.921,0
		c0,0.396,0,0.78,0,1.253c0.502-0.649,1.029-1.146,1.76-1.309c0.428-0.097,0.88-0.084,1.357-0.125
		c-0.047,0.36-0.082,0.637-0.115,0.894c-0.39,0.035-0.774,0.024-1.136,0.109c-1.073,0.252-1.868,1.293-1.869,2.397
		c-0.001,1.512-0.001,3.024,0,4.536c0,0.116,0,0.23,0,0.365C53.999,30.337,53.713,30.337,53.398,30.337z"/>
	<path fill-rule="evenodd" clip-rule="evenodd" fill="#A71738" d="M100.615,30.344c-0.333,0-0.613,0-0.91,0c0-2.71,0-5.407,0-8.127
		c0.287,0,0.575,0,0.903,0c0,0.384,0,0.775,0,1.165c0.514-0.562,1.039-1.059,1.772-1.221c0.428-0.096,0.88-0.083,1.354-0.123
		c-0.046,0.361-0.081,0.637-0.115,0.893c-0.393,0.035-0.774,0.024-1.137,0.109c-1.073,0.254-1.867,1.295-1.867,2.399
		c-0.002,1.512,0,3.023,0,4.537C100.615,30.09,100.615,30.204,100.615,30.344z"/>
	<path fill-rule="evenodd" clip-rule="evenodd" fill="#80979D" d="M148.4,37.18c0,3.765,0,7.514,0,11.277c-0.301,0-0.586,0-0.889,0
		c0-3.76,0-7.509,0-11.277C147.793,37.18,148.08,37.18,148.4,37.18z"/>
	<path fill-rule="evenodd" clip-rule="evenodd" fill="#80979D" d="M170.243,67.02c-0.31,0-0.589,0-0.884,0c0-2.714,0-5.413,0-8.13
		c0.29,0,0.578,0,0.884,0C170.243,61.599,170.243,64.3,170.243,67.02z"/>
	<path fill-rule="evenodd" clip-rule="evenodd" fill="#80979D" d="M119.417,48.457c-0.309,0-0.588,0-0.883,0c0-2.714,0-5.413,0-8.13
		c0.291,0,0.578,0,0.883,0C119.417,43.038,119.417,45.735,119.417,48.457z"/>
	<path fill-rule="evenodd" clip-rule="evenodd" fill="#80979D" d="M70.1,40.329c0.29,0,0.57,0,0.873,0c0,2.705,0,5.402,0,8.128
		c-0.275,0-0.562,0-0.873,0C70.1,45.761,70.1,43.062,70.1,40.329z"/>
	<path fill-rule="evenodd" clip-rule="evenodd" fill="#A71738" d="M129.981,30.333c0-2.707,0-5.4,0-8.117c0.284,0,0.573,0,0.883,0
		c0,2.693,0,5.394,0,8.117C130.589,30.333,130.304,30.333,129.981,30.333z"/>
	<path fill-rule="evenodd" clip-rule="evenodd" fill="#80979D" d="M170.27,57.108c-0.339,0-0.654,0-0.992,0c0-0.456,0-0.897,0-1.356
		c0.32,0,0.646,0,0.992,0C170.27,56.195,170.27,56.635,170.27,57.108z"/>
	<path fill-rule="evenodd" clip-rule="evenodd" fill="#A71738" d="M130.932,19.057c0,0.47,0,0.905,0,1.358c-0.341,0-0.666,0-1.007,0
		c0-0.46,0-0.903,0-1.358C130.262,19.057,130.587,19.057,130.932,19.057z"/>
	<path fill-rule="evenodd" clip-rule="evenodd" fill="#80979D" d="M119.473,38.806c-0.34,0-0.658,0-0.994,0c0-0.457,0-0.898,0-1.358
		c0.322,0,0.65,0,0.994,0C119.473,37.894,119.473,38.335,119.473,38.806z"/>
	<path fill-rule="evenodd" clip-rule="evenodd" fill="#80979D" d="M71.03,38.205c-0.329,0-0.646,0-0.988,0c0-0.45,0-0.892,0-1.355
		c0.312,0,0.638,0,0.988,0C71.03,37.293,71.03,37.741,71.03,38.205z"/>
</g>
<rect x="193.715" y="17.481" opacity="0" fill-rule="evenodd" clip-rule="evenodd" fill="#FFFFFF" width="19.375" height="14.5"/>
<g>
</g>
<g>
</g>
<g>
</g>
<g>
</g>
<g>
</g>
<g>
</g>
</svg>
