<?xml version="1.0" encoding="utf-8"?>
<!-- Generator: Adobe Illustrator 16.0.0, SVG Export Plug-In . SVG Version: 6.00 Build 0)  -->
<!DOCTYPE svg PUBLIC "-//W3C//DTD SVG 1.1//EN" "http://www.w3.org/Graphics/SVG/1.1/DTD/svg11.dtd">
<svg version="1.1" id="Layer_1" xmlns="http://www.w3.org/2000/svg" xmlns:xlink="http://www.w3.org/1999/xlink" x="0px" y="0px"
	 width="407px" height="382px" viewBox="0 0 407 382" enable-background="new 0 0 407 382" xml:space="preserve">
<g>
	<g>
		<path fill="#2D2867" d="M398.027,175.544c0,41.035-33.281,74.326-74.281,74.326c-41.082,0-74.355-33.291-74.355-74.326
			c0-41.047,33.273-74.391,74.355-74.391C364.746,101.153,398.027,134.497,398.027,175.544"/>
		<path opacity="0.4" fill="#2D2867" d="M268.406,284.067c0,19.477-15.789,35.266-35.26,35.266c-19.475,0-35.27-15.789-35.27-35.266
			c0-19.473,15.795-35.264,35.27-35.264C252.617,248.804,268.406,264.595,268.406,284.067"/>
		<path opacity="0.4" fill="#2D2867" d="M342.158,359.593c0,10.164-8.248,18.408-18.408,18.408c-10.168,0-18.42-8.244-18.42-18.408
			c0-10.168,8.252-18.42,18.42-18.42C333.91,341.173,342.158,349.425,342.158,359.593"/>
	</g>
	<g>
		<g>
			<g>
				<path fill="#FFFEF9" d="M275.229,157.527c0,0.29,0.049,1.579,0.193,2.514c-0.064,0.193-0.5,0.258-0.613,0.112
					c-0.434-1.498-1.465-2.304-3.029-2.304c-1.787,0-3.705,1.53-3.705,4.737c0,3.207,1.854,4.932,3.787,4.932
					c1.949,0,2.852-1.402,3.287-2.498c0.129-0.129,0.516-0.08,0.611,0.113c-0.113,1.191-0.387,2.158-0.611,2.529
					c-0.871,0.242-2.016,0.596-3.271,0.596c-1.58,0-3.191-0.371-4.334-1.225c-1.16-0.887-2.047-2.223-2.047-4.221
					c0-1.966,0.838-3.352,1.949-4.271c1.145-0.95,2.787-1.434,4.463-1.434C273.553,157.108,274.744,157.495,275.229,157.527z"/>
				<path fill="#FFFEF9" d="M281.711,161.555c0,0.451,0.016,0.484,0.451,0.484h1.111c0.838,0,1.031-0.113,1.193-0.887l0.08-0.403
					c0.113-0.129,0.516-0.129,0.596,0.017c-0.031,0.515-0.047,1.095-0.047,1.707c0,0.613,0.016,1.193,0.047,1.709
					c-0.08,0.145-0.482,0.16-0.596,0.016l-0.08-0.402c-0.162-0.773-0.355-0.902-1.193-0.902h-1.111c-0.436,0-0.451,0.016-0.451,0.5
					v1.916c0,0.742,0.064,1.258,0.258,1.531c0.209,0.291,0.516,0.42,1.691,0.42c1.402,0,1.951-0.049,2.836-1.869
					c0.129-0.178,0.533-0.113,0.598,0.08c-0.064,0.838-0.451,2.143-0.678,2.578c-0.854-0.033-2.4-0.049-3.723-0.049H280.6
					c-0.773,0-1.562,0.016-2.771,0.049c-0.129-0.098-0.129-0.484,0-0.564l0.758-0.113c0.725-0.111,0.82-0.209,0.82-1.691v-6.009
					c0-1.467-0.096-1.563-0.82-1.709l-0.404-0.08c-0.145-0.097-0.129-0.467,0.033-0.564c0.758,0.033,1.547,0.049,2.32,0.049h3.416
					c1.031,0,1.949-0.016,2.158-0.049c0.018,0.258,0.129,1.418,0.211,2.498c-0.064,0.178-0.436,0.209-0.598,0.064
					c-0.176-0.564-0.402-1.047-0.611-1.273c-0.307-0.306-0.789-0.499-1.58-0.499h-1.289c-0.531,0-0.531,0.032-0.531,0.628V161.555z"
					/>
				<path fill="#FFFEF9" d="M299.248,165.262c0,1.047,0,2.062,0.031,2.594c-0.111,0.193-0.562,0.371-0.949,0.371
					c-0.018,0-0.549-0.822-1.307-1.758l-3.721-4.607c-0.936-1.144-1.467-1.821-1.758-2.062c-0.08,0.16-0.08,0.435-0.08,1.031v3.125
					c0,1.307,0.064,2.514,0.242,2.949c0.145,0.338,0.516,0.451,0.934,0.516l0.451,0.064c0.129,0.129,0.098,0.467,0,0.564
					c-0.869-0.033-1.514-0.049-2.158-0.049c-0.596,0-1.193,0.016-1.805,0.049c-0.098-0.098-0.129-0.436,0-0.564l0.273-0.049
					c0.436-0.08,0.758-0.193,0.887-0.531c0.178-0.436,0.225-1.643,0.225-2.949v-4.091c0-0.887-0.016-1.145-0.111-1.37
					c-0.129-0.274-0.355-0.468-0.92-0.548l-0.451-0.064c-0.111-0.129-0.096-0.516,0.064-0.564c0.758,0.033,1.564,0.049,2.225,0.049
					c0.547,0,1.016-0.016,1.354-0.049c0.16,0.726,1.209,1.95,2.658,3.674l1.354,1.595c0.709,0.838,1.176,1.402,1.547,1.773
					c0.064-0.162,0.064-0.436,0.064-0.727v-2.223c0-1.305-0.064-2.513-0.242-2.949c-0.145-0.338-0.498-0.451-0.934-0.516
					l-0.436-0.064c-0.129-0.129-0.096-0.467,0-0.564c0.871,0.033,1.498,0.049,2.16,0.049c0.596,0,1.176-0.016,1.805-0.049
					c0.096,0.098,0.129,0.436,0,0.564l-0.291,0.049c-0.418,0.064-0.725,0.193-0.869,0.531c-0.178,0.436-0.242,1.644-0.242,2.949
					V165.262z"/>
				<path fill="#FFFEF9" d="M306.521,158.575c0-0.387,0-0.468-0.387-0.468h-1c-1.176,0-1.514,0.645-1.998,1.821
					c-0.193,0.096-0.5,0.064-0.596-0.146c0.338-1.112,0.418-2.11,0.531-2.739c0.064-0.049,0.145-0.08,0.227-0.08
					c0.08,0,0.16,0.016,0.225,0.064c0.08,0.273,0.129,0.338,1.354,0.338h5.994c1.064,0,1.305-0.016,1.451-0.354
					c0.064-0.032,0.111-0.048,0.209-0.048c0.096,0,0.209,0.064,0.242,0.112c-0.162,0.548-0.275,1.853-0.242,2.771
					c-0.08,0.146-0.516,0.177-0.596,0.048c-0.275-1.031-0.5-1.788-1.709-1.788h-0.967c-0.387,0-0.436,0.048-0.436,0.468v7.105
					c0,1.498,0.098,1.627,0.822,1.725l0.645,0.08c0.113,0.098,0.113,0.467,0,0.564c-1.047-0.033-1.854-0.049-2.578-0.049
					c-0.773,0-1.611,0.016-2.738,0.049c-0.129-0.098-0.129-0.467,0-0.564l0.725-0.08c0.725-0.08,0.822-0.227,0.822-1.725V158.575z"
					/>
				<path fill="#FFFEF9" d="M318.562,161.555c0,0.451,0.016,0.484,0.451,0.484h1.111c0.838,0,1.031-0.113,1.193-0.887l0.08-0.403
					c0.113-0.129,0.516-0.129,0.596,0.017c-0.031,0.515-0.047,1.095-0.047,1.707c0,0.613,0.016,1.193,0.047,1.709
					c-0.08,0.145-0.482,0.16-0.596,0.016l-0.08-0.402c-0.162-0.773-0.355-0.902-1.193-0.902h-1.111c-0.436,0-0.451,0.016-0.451,0.5
					v1.916c0,0.742,0.064,1.258,0.258,1.531c0.209,0.291,0.516,0.42,1.691,0.42c1.402,0,1.951-0.049,2.836-1.869
					c0.129-0.178,0.533-0.113,0.598,0.08c-0.064,0.838-0.451,2.143-0.678,2.578c-0.854-0.033-2.4-0.049-3.723-0.049h-2.094
					c-0.773,0-1.562,0.016-2.771,0.049c-0.129-0.098-0.129-0.484,0-0.564l0.758-0.113c0.725-0.111,0.82-0.209,0.82-1.691v-6.009
					c0-1.467-0.096-1.563-0.82-1.709l-0.404-0.08c-0.145-0.097-0.129-0.467,0.033-0.564c0.758,0.033,1.547,0.049,2.32,0.049h3.416
					c1.031,0,1.949-0.016,2.158-0.049c0.018,0.258,0.129,1.418,0.211,2.498c-0.064,0.178-0.436,0.209-0.598,0.064
					c-0.176-0.564-0.402-1.047-0.611-1.273c-0.307-0.306-0.789-0.499-1.58-0.499h-1.289c-0.531,0-0.531,0.032-0.531,0.628V161.555z"
					/>
				<path fill="#FFFEF9" d="M327.43,159.976c0-1.611-0.031-1.788-0.709-1.886l-0.434-0.064c-0.162-0.08-0.162-0.482,0.031-0.563
					c1.209-0.081,2.465-0.146,3.996-0.146c1.369,0,2.547,0.21,3.158,0.58c0.936,0.549,1.418,1.354,1.418,2.385
					c0,1.435-0.967,2.046-1.707,2.417c-0.162,0.08-0.162,0.178-0.082,0.354c1.064,2.16,1.725,3.369,2.498,4.029
					c0.42,0.338,0.838,0.436,1.08,0.451c0.145,0.08,0.145,0.322,0.064,0.418c-0.258,0.113-0.773,0.146-1.273,0.146
					c-1.482,0-2.416-0.533-3.125-1.693c-0.516-0.854-0.887-1.643-1.258-2.496c-0.193-0.436-0.451-0.564-0.854-0.564
					c-0.564,0-0.596,0.031-0.596,0.354v1.982c0,1.482,0.096,1.596,0.82,1.725l0.436,0.08c0.113,0.08,0.113,0.467,0,0.564
					c-0.854-0.033-1.596-0.049-2.369-0.049c-0.805,0-1.514,0.016-2.352,0.049c-0.129-0.098-0.129-0.484,0-0.564l0.436-0.08
					c0.725-0.129,0.82-0.242,0.82-1.725V159.976z M329.639,162.021c0,0.564,0.047,0.613,0.998,0.613c0.58,0,0.918-0.145,1.225-0.451
					c0.273-0.273,0.58-0.789,0.58-1.74c0-1.451-0.854-2.385-2.111-2.385c-0.66,0-0.691,0.048-0.691,0.821V162.021z"/>
				<path fill="#FFFEF9" d="M349.881,161.684c0,0.436,0.016,0.484,0.451,0.484h1.24c0.854,0,1.031-0.113,1.191-0.902l0.082-0.387
					c0.111-0.146,0.516-0.129,0.611,0.017c-0.031,0.515-0.049,1.111-0.049,1.724c0,0.596,0.018,1.191,0.049,1.676
					c-0.096,0.145-0.5,0.16-0.611,0.016l-0.082-0.387c-0.16-0.773-0.338-0.902-1.191-0.902h-1.24c-0.436,0-0.451,0.049-0.451,0.482
					v2.176c0,1.498,0.096,1.627,0.82,1.725l0.598,0.08c0.111,0.098,0.111,0.467,0,0.564c-1-0.033-1.789-0.049-2.562-0.049
					c-0.742,0-1.547,0.016-2.514,0.049c-0.129-0.098-0.129-0.467,0-0.564l0.531-0.08c0.725-0.113,0.822-0.227,0.822-1.725v-5.994
					c0-1.498-0.098-1.644-0.822-1.756l-0.322-0.049c-0.145-0.097-0.145-0.5,0.033-0.564c0.691,0.033,1.498,0.049,2.271,0.049h3.383
					c1.031,0,1.951-0.016,2.176-0.049c0,0.274,0,1.435,0.033,2.514c-0.064,0.178-0.42,0.193-0.613,0.064
					c-0.178-0.66-0.307-1.047-0.467-1.256c-0.273-0.339-0.758-0.532-1.58-0.532h-1.256c-0.531,0-0.531,0.032-0.531,0.661V161.684z"
					/>
				<path fill="#FFFEF9" d="M368.238,162.635c0,3.512-2.354,5.623-5.816,5.623c-3.24,0-5.592-2.127-5.592-5.494
					c0-3.191,2.385-5.656,5.752-5.656C365.934,157.108,368.238,159.364,368.238,162.635z M362.453,157.849
					c-1.982,0-3.045,1.853-3.045,4.543c0,1.967,0.693,5.125,3.318,5.125c2.111,0,2.934-2.062,2.934-4.674
					C365.66,160.088,364.451,157.849,362.453,157.849z"/>
				<path fill="#FFFEF9" d="M372.336,159.976c0-1.611-0.031-1.788-0.709-1.886l-0.434-0.064c-0.162-0.08-0.162-0.482,0.031-0.563
					c1.209-0.081,2.465-0.146,3.996-0.146c1.369,0,2.547,0.21,3.158,0.58c0.936,0.549,1.418,1.354,1.418,2.385
					c0,1.435-0.967,2.046-1.707,2.417c-0.162,0.08-0.162,0.178-0.082,0.354c1.064,2.16,1.725,3.369,2.498,4.029
					c0.42,0.338,0.838,0.436,1.08,0.451c0.145,0.08,0.145,0.322,0.064,0.418c-0.258,0.113-0.773,0.146-1.273,0.146
					c-1.482,0-2.416-0.533-3.125-1.693c-0.516-0.854-0.887-1.643-1.258-2.496c-0.193-0.436-0.451-0.564-0.854-0.564
					c-0.564,0-0.596,0.031-0.596,0.354v1.982c0,1.482,0.096,1.596,0.82,1.725l0.436,0.08c0.113,0.08,0.113,0.467,0,0.564
					c-0.854-0.033-1.596-0.049-2.369-0.049c-0.805,0-1.514,0.016-2.352,0.049c-0.129-0.098-0.129-0.484,0-0.564l0.436-0.08
					c0.725-0.129,0.82-0.242,0.82-1.725V159.976z M374.545,162.021c0,0.564,0.047,0.613,0.998,0.613c0.58,0,0.918-0.145,1.225-0.451
					c0.273-0.273,0.58-0.789,0.58-1.74c0-1.451-0.854-2.385-2.111-2.385c-0.66,0-0.691,0.048-0.691,0.821V162.021z"/>
				<path fill="#FFFEF9" d="M280.908,191.303c0,0.676,0.031,0.998,0.338,1.062c0.064,0.064,0.049,0.34-0.049,0.387
					c-0.273,0.049-0.693,0.098-1.127,0.242c-0.564,0.178-1.951,0.387-2.854,0.387c-1.096,0-2.029-0.113-3.174-0.564
					c-1.885-0.756-3.174-2.545-3.174-4.865c0-2.014,0.902-3.787,2.836-4.867c1.096-0.596,2.4-0.854,3.77-0.854
					c1.789,0,2.676,0.387,3.191,0.387c0.049,0.484,0.064,1.611,0.225,2.594c-0.064,0.178-0.498,0.193-0.611,0.033
					c-0.516-1.516-1.531-2.271-3.029-2.271c-2.562,0-3.803,2.127-3.803,4.672c0,2.305,0.789,3.674,1.836,4.383
					c0.773,0.516,1.611,0.613,2.209,0.613c0.918,0,1.111-0.178,1.111-1.225V190.4c0-0.871-0.098-0.967-0.871-1.08l-0.709-0.096
					c-0.176-0.098-0.176-0.469,0-0.564c1.145,0.031,1.934,0.049,2.725,0.049c0.773,0,1.562-0.018,2.109-0.049
					c0.129,0.096,0.129,0.467,0,0.564l-0.369,0.064c-0.484,0.08-0.58,0.24-0.58,1.111V191.303z"/>
				<path fill="#FFFEF9" d="M287.811,190.449c0,0.756,0.064,1.271,0.273,1.529c0.209,0.275,0.5,0.404,1.676,0.404
					c1.467,0,1.918-0.049,2.867-1.918c0.129-0.162,0.5-0.098,0.613,0.096c-0.08,0.838-0.467,2.176-0.693,2.611
					c-0.854-0.033-2.4-0.049-3.723-0.049h-2.158c-0.742,0-1.547,0.016-2.547,0.049c-0.145-0.098-0.176-0.467-0.047-0.564l0.611-0.08
					c0.725-0.098,0.822-0.227,0.822-1.725v-5.994c0-1.498-0.098-1.643-0.822-1.74l-0.467-0.064
					c-0.162-0.096-0.162-0.467,0.031-0.564c0.838,0.033,1.645,0.049,2.418,0.049s1.578-0.016,2.385-0.049
					c0.129,0.098,0.129,0.469,0,0.564l-0.42,0.064c-0.725,0.113-0.82,0.242-0.82,1.74V190.449z"/>
				<path fill="#FFFEF9" d="M299.496,190.803c0,1.498,0.098,1.627,0.822,1.725l0.645,0.08c0.113,0.098,0.113,0.467,0,0.564
					c-1.047-0.033-1.838-0.049-2.611-0.049s-1.578,0.016-2.529,0.049c-0.129-0.098-0.129-0.467,0-0.564l0.549-0.08
					c0.725-0.113,0.82-0.227,0.82-1.725v-0.805c0-0.807-0.016-1.064-0.434-1.918l-1.918-3.965c-0.322-0.66-0.467-0.918-1.031-1.014
					l-0.549-0.098c-0.145-0.129-0.129-0.516,0.064-0.564c0.727,0.033,1.322,0.049,2.273,0.049c0.982,0,1.805-0.016,2.352-0.049
					c0.145,0.064,0.178,0.436,0.033,0.564l-0.549,0.129c-0.289,0.064-0.387,0.129-0.387,0.145c0,0.129,0.08,0.371,0.42,1.129
					l0.756,1.725c0.242,0.531,0.613,1.271,0.807,1.676c0.467-0.791,0.967-1.838,1.385-2.66c0.58-1.143,0.773-1.627,0.773-1.82
					c0-0.096-0.258-0.193-0.645-0.258l-0.305-0.064c-0.129-0.08-0.146-0.482,0.016-0.564c0.645,0.033,1.225,0.049,1.805,0.049
					c0.611,0,1.111-0.016,1.578-0.049c0.193,0.064,0.193,0.451,0.064,0.564l-0.418,0.08c-0.291,0.049-0.66,0.162-0.838,0.387
					c-0.242,0.307-0.629,0.887-1.402,2.289l-1.016,1.836c-0.418,0.758-0.531,1.16-0.531,2.08V190.803z"/>
				<path fill="#FFFEF9" d="M314.648,182.65c0,0.289,0.049,1.578,0.193,2.514c-0.064,0.193-0.5,0.258-0.613,0.111
					c-0.434-1.498-1.465-2.303-3.029-2.303c-1.787,0-3.705,1.529-3.705,4.736s1.854,4.932,3.787,4.932
					c1.949,0,2.852-1.402,3.287-2.498c0.129-0.129,0.516-0.08,0.611,0.113c-0.113,1.191-0.387,2.158-0.611,2.529
					c-0.871,0.242-2.016,0.596-3.271,0.596c-1.58,0-3.191-0.371-4.334-1.225c-1.16-0.887-2.047-2.223-2.047-4.221
					c0-1.967,0.838-3.352,1.949-4.271c1.145-0.949,2.787-1.434,4.463-1.434C312.973,182.23,314.164,182.617,314.648,182.65z"/>
				<path fill="#FFFEF9" d="M328.85,187.758c0,3.512-2.354,5.623-5.816,5.623c-3.24,0-5.592-2.127-5.592-5.494
					c0-3.191,2.385-5.656,5.752-5.656C326.545,182.23,328.85,184.486,328.85,187.758z M323.064,182.973
					c-1.982,0-3.045,1.852-3.045,4.543c0,1.967,0.693,5.125,3.318,5.125c2.111,0,2.934-2.062,2.934-4.674
					C326.271,185.211,325.062,182.973,323.064,182.973z"/>
				<path fill="#FFFEF9" d="M331.66,183.004c-0.129-0.129-0.129-0.516,0.049-0.564c0.547,0.033,1.24,0.049,2.029,0.049
					c0.531,0,1,0,1.58-0.049c0,1,0.562,1.982,1.271,3.498l1.064,2.271c0.145,0.322,0.725,1.338,0.951,1.74
					c0.209-0.387,0.467-0.887,0.902-1.838l0.82-1.771c0.773-1.66,1.178-2.514,1.531-3.9c0.742,0.064,1.111,0.049,1.596,0.049
					c0.531,0,1.273-0.016,1.854-0.049c0.176,0.098,0.176,0.404,0.047,0.564l-0.467,0.08c-0.66,0.113-0.982,0.307-0.982,1.16
					c0,3.32,0.031,5.061,0.129,7.09c0.031,0.742,0.096,1.129,0.725,1.209l0.516,0.064c0.129,0.129,0.129,0.5-0.031,0.564
					c-0.742-0.033-1.436-0.049-2.225-0.049c-0.725,0-1.611,0.016-2.385,0.049c-0.193-0.08-0.209-0.451-0.049-0.564l0.484-0.064
					c0.74-0.096,0.74-0.289,0.74-1.273l-0.031-4.189v-1.836h-0.033c-1.191,2.578-2.48,5.27-3.545,7.992
					c-0.08,0.064-0.193,0.113-0.322,0.113c-0.145,0-0.322-0.033-0.418-0.098c-0.629-1.998-2.611-5.994-3.514-8.088h-0.031
					c-0.064,1.047-0.08,1.756-0.098,2.594c-0.016,1.047-0.031,2.658-0.031,3.625c0,0.807,0.096,1.031,0.74,1.129l0.629,0.096
					c0.129,0.113,0.098,0.484-0.031,0.564c-0.598-0.033-1.289-0.049-1.902-0.049c-0.516,0-1.127,0.016-1.771,0.049
					c-0.211-0.064-0.211-0.484-0.064-0.564l0.289-0.049c0.822-0.145,0.918-0.24,1.016-1.24c0.08-0.789,0.129-2.191,0.225-3.723
					c0.064-1.078,0.098-2.385,0.098-3.254c0-0.918-0.355-1.16-1-1.273L331.66,183.004z"/>
				<path fill="#FFFEF9" d="M351.502,190.771c0,1.514,0.098,1.627,0.838,1.756l0.451,0.08c0.129,0.098,0.113,0.467-0.016,0.564
					c-0.871-0.033-1.66-0.049-2.418-0.049c-0.773,0-1.578,0.016-2.449,0.049c-0.129-0.098-0.129-0.467,0-0.564l0.451-0.08
					c0.742-0.129,0.838-0.242,0.838-1.756v-5.93c0-1.516-0.096-1.629-0.838-1.758l-0.451-0.08c-0.129-0.096-0.129-0.467,0-0.564
					c0.871,0.033,1.676,0.049,2.449,0.049c0.758,0,1.564-0.016,2.434-0.049c0.129,0.098,0.129,0.469,0,0.564l-0.451,0.08
					c-0.74,0.129-0.838,0.242-0.838,1.758V190.771z"/>
				<path fill="#FFFEF9" d="M365.33,182.65c0,0.289,0.049,1.578,0.193,2.514c-0.064,0.193-0.498,0.258-0.611,0.111
					c-0.436-1.498-1.467-2.303-3.029-2.303c-1.789,0-3.707,1.529-3.707,4.736s1.854,4.932,3.787,4.932
					c1.949,0,2.852-1.402,3.287-2.498c0.129-0.129,0.516-0.08,0.613,0.113c-0.113,1.191-0.387,2.158-0.613,2.529
					c-0.869,0.242-2.014,0.596-3.271,0.596c-1.578,0-3.189-0.371-4.334-1.225c-1.16-0.887-2.047-2.223-2.047-4.221
					c0-1.967,0.838-3.352,1.951-4.271c1.143-0.949,2.787-1.434,4.463-1.434C363.654,182.23,364.848,182.617,365.33,182.65z"/>
				<path fill="#FFFEF9" d="M371.299,193.381c-1.482,0-2.4-0.418-2.738-0.611c-0.307-0.355-0.516-1.516-0.516-2.611
					c0.111-0.209,0.482-0.225,0.611-0.049c0.322,1.049,1.402,2.531,2.771,2.531c1.193,0,1.74-0.822,1.74-1.629
					c0-1.305-1.225-2.078-2.191-2.561c-1.16-0.58-2.434-1.547-2.434-3.143c-0.016-1.82,1.402-3.078,3.738-3.078
					c0.533,0,1.193,0.064,1.838,0.258c0.209,0.064,0.354,0.098,0.547,0.129c0.129,0.355,0.291,1.225,0.291,2.305
					c-0.08,0.193-0.484,0.209-0.629,0.049c-0.273-0.822-0.967-1.998-2.127-1.998c-1.062,0-1.643,0.691-1.643,1.498
					c0,0.74,0.66,1.418,1.465,1.836l1.064,0.564c0.998,0.531,2.271,1.467,2.271,3.238
					C375.359,192.092,373.732,193.381,371.299,193.381z"/>
			</g>
		</g>
		<path stroke="#000000" stroke-miterlimit="10" d="M398.027,8.001c0,0-88.584,94.227-99.316,98.947
			c-10.734,4.72-115.635-3.721-125.684,0c-10.051,3.72-95,75-95,75s78.717-51.387,90-55s130.084,4.946,140.684,0
			C319.311,122.001,398.027,8.001,398.027,8.001z"/>
		<circle opacity="0.4" fill="#2D2867" cx="278.943" cy="58.001" r="13.75"/>
		<path fill="none" stroke="#000000" stroke-width="0.25" stroke-miterlimit="10" d="M116.066,125.548"/>
		<g>
			<g>
				<g>
					<path d="M45.387,242.364c0,0-0.655-0.53-1.884-1.525c-1.241-0.975-2.982-2.511-5.115-4.538
						c-1.037-1.048-2.229-2.158-3.398-3.494c-0.593-0.66-1.225-1.331-1.847-2.056c-0.607-0.739-1.236-1.504-1.885-2.294
						c-2.535-3.207-5.174-6.998-7.591-11.383c-4.861-8.736-8.722-19.946-9.769-32.255c-0.517-6.146-0.306-12.534,0.647-18.89
						c0.96-6.358,2.777-12.659,5.265-18.641c2.501-5.98,5.797-11.586,9.57-16.648c3.817-5.036,8.125-9.541,12.724-13.361
						c1.176-0.923,2.299-1.889,3.489-2.744c1.202-0.836,2.392-1.665,3.569-2.485c2.441-1.506,4.825-2.973,7.276-4.16
						c4.861-2.43,9.653-4.311,14.217-5.502c0.566-0.161,1.126-0.32,1.681-0.477c0.563-0.124,1.12-0.247,1.67-0.368
						c1.099-0.237,2.173-0.469,3.22-0.695c1.058-0.162,2.088-0.32,3.091-0.474c0.5-0.076,0.993-0.151,1.479-0.225
						c0.487-0.063,0.971-0.092,1.445-0.138c1.898-0.157,3.665-0.366,5.313-0.356c1.644-0.023,3.149-0.119,4.51-0.021
						c1.358,0.057,2.571,0.107,3.626,0.152c1.049,0.111,1.942,0.206,2.666,0.283c1.444,0.155,2.214,0.237,2.214,0.237l-0.281,2.686
						c0,0-0.747-0.022-2.148-0.063c-0.699-0.021-1.56-0.046-2.573-0.076c-1.012,0.036-2.175,0.077-3.478,0.124
						c-1.301,0.003-2.733,0.21-4.291,0.351c-1.561,0.108-3.225,0.441-5.004,0.725c-0.444,0.078-0.897,0.138-1.352,0.233
						c-0.453,0.106-0.912,0.213-1.378,0.322c-0.93,0.216-1.887,0.438-2.87,0.667c-0.965,0.289-1.955,0.584-2.969,0.887
						c-0.505,0.152-1.016,0.306-1.533,0.462c-0.506,0.188-1.018,0.377-1.535,0.568c-4.166,1.433-8.47,3.53-12.755,6.102
						c-2.164,1.258-4.238,2.776-6.352,4.31c-1.011,0.827-2.032,1.663-3.064,2.506c-1.018,0.856-1.964,1.816-2.96,2.727
						c-3.878,3.766-7.414,8.1-10.457,12.83c-2.999,4.757-5.503,9.896-7.269,15.26c-1.751,5.364-2.89,10.899-3.283,16.385
						c-0.385,5.483-0.139,10.895,0.698,16.009c1.696,10.249,5.617,19.193,10.105,25.946c4.481,6.796,9.383,11.479,12.979,14.447
						c1.82,1.47,3.28,2.577,4.327,3.266c1.028,0.709,1.577,1.087,1.577,1.087s0.54,0.407,1.553,1.17c1,0.786,2.534,1.84,4.536,3.116
						c1.02,0.604,2.124,1.329,3.401,1.979c0.635,0.332,1.28,0.714,1.979,1.049c0.7,0.333,1.426,0.678,2.176,1.035
						c3.03,1.357,6.56,2.691,10.551,3.731c7.955,2.092,17.846,2.961,28.237,1.148c5.175-0.924,10.47-2.429,15.579-4.68
						c5.092-2.266,10.077-5.125,14.57-8.684c9.058-7.029,16.324-16.532,20.743-26.568c2.214-5.014,3.896-10.12,4.809-15.12
						c0.151-0.619,0.259-1.24,0.338-1.861c0.092-0.621,0.183-1.237,0.273-1.849c0.091-0.612,0.182-1.221,0.271-1.823
						c0.051-0.607,0.101-1.211,0.15-1.809c0.082-1.195,0.221-2.375,0.252-3.534c0.014-1.163,0.028-2.303,0.042-3.42
						c-0.048-8.968-1.854-16.378-3.429-21.401c-0.421-1.254-0.797-2.374-1.125-3.348c-0.39-0.952-0.723-1.762-0.992-2.418
						c-0.54-1.316-0.828-2.019-0.828-2.019l2.414-1.21c0,0,0.353,0.703,1.015,2.021c0.331,0.661,0.739,1.476,1.219,2.433
						c0.418,0.988,0.898,2.123,1.436,3.395c2.038,5.11,4.534,12.736,5.318,22.295c0.076,1.194,0.153,2.414,0.232,3.658
						c0.059,1.244,0.011,2.516,0.02,3.81c-0.005,0.647-0.011,1.301-0.016,1.959c-0.046,0.657-0.093,1.318-0.14,1.985
						c-0.047,0.668-0.096,1.342-0.144,2.02c-0.037,0.681-0.102,1.362-0.212,2.043c-0.583,5.496-1.978,11.212-4,16.929
						c-4.038,11.447-11.289,22.709-21.046,31.567c-4.838,4.467-10.332,8.229-16.074,11.326c-5.757,3.082-11.841,5.344-17.9,6.91
						c-12.154,3.106-24.202,3.027-34.183,1.213c-5.004-0.896-9.508-2.203-13.415-3.605c-0.969-0.372-1.908-0.732-2.814-1.08
						c-0.904-0.354-1.749-0.758-2.575-1.113c-1.662-0.699-3.118-1.483-4.458-2.15c-2.639-1.4-4.675-2.59-6.012-3.472
						C46.107,242.826,45.387,242.364,45.387,242.364z"/>
				</g>
			</g>
		</g>
		<g>
			<g>
				<path fill="none" stroke="#000000" stroke-width="0.25" stroke-miterlimit="10" d="M136.691,115.784"/>
			</g>
		</g>
	</g>
</g>
<g>
</g>
<g>
</g>
<g>
</g>
<g>
</g>
<g>
</g>
<g>
</g>
</svg>
