<?xml version="1.0" encoding="utf-8"?>
<!-- Generator: Adobe Illustrator 16.0.0, SVG Export Plug-In . SVG Version: 6.00 Build 0)  -->
<!DOCTYPE svg PUBLIC "-//W3C//DTD SVG 1.1//EN" "http://www.w3.org/Graphics/SVG/1.1/DTD/svg11.dtd">
<svg version="1.1" id="Layer_1" xmlns="http://www.w3.org/2000/svg" xmlns:xlink="http://www.w3.org/1999/xlink" x="0px" y="0px"
	 width="389.333px" height="21px" viewBox="0 0 389.333 21" enable-background="new 0 0 389.333 21" xml:space="preserve">
<g>
	<g>
		<path fill="#FFFEF9" d="M2.412,4.12c0-2.142-0.138-2.28-1.174-2.487L0.662,1.517C0.477,1.379,0.455,0.873,0.708,0.735
			C1.813,0.781,2.964,0.803,4.07,0.803c1.128,0,2.256-0.022,3.361-0.068c0.185,0.138,0.185,0.645,0,0.782L6.878,1.61
			C5.842,1.793,5.705,1.978,5.705,4.12v5.318c0,2.694,0.299,5.664,3.799,5.664c2.947,0,3.846-2.578,3.846-5.732V6.583
			c0-1.865-0.093-3.615-0.346-4.214c-0.207-0.483-0.714-0.622-1.336-0.737l-0.621-0.115c-0.185-0.184-0.139-0.645,0-0.782
			c1.243,0.046,2.142,0.068,3.085,0.068c0.853,0,1.704-0.022,2.579-0.068c0.139,0.138,0.185,0.599,0,0.782L16.296,1.61
			c-0.599,0.138-1.036,0.276-1.244,0.76c-0.253,0.599-0.345,2.349-0.345,4.214v2.578c0,2.165-0.207,4.145-1.474,5.55
			c-1.014,1.082-2.694,1.657-4.56,1.657c-1.75,0-3.315-0.276-4.559-1.289c-1.197-0.99-1.704-2.694-1.704-5.204V4.12z"/>
		<path fill="#FFFEF9" d="M34.259,12.086c0,1.496,0,2.947,0.046,3.707c-0.161,0.276-0.806,0.529-1.358,0.529
			c-0.023,0-0.783-1.174-1.865-2.51l-5.318-6.585c-1.336-1.635-2.096-2.603-2.51-2.947c-0.115,0.23-0.115,0.621-0.115,1.474v4.467
			c0,1.865,0.092,3.592,0.345,4.214c0.208,0.483,0.737,0.645,1.336,0.736l0.645,0.093c0.185,0.184,0.139,0.667,0,0.806
			C24.22,16.024,23.299,16,22.378,16c-0.853,0-1.704,0.023-2.579,0.069c-0.139-0.139-0.185-0.622,0-0.806l0.392-0.069
			c0.621-0.115,1.082-0.276,1.266-0.76c0.254-0.622,0.323-2.349,0.323-4.214V4.373c0-1.267-0.023-1.635-0.161-1.957
			c-0.185-0.392-0.507-0.668-1.312-0.783l-0.646-0.092c-0.161-0.185-0.138-0.737,0.093-0.806c1.082,0.046,2.233,0.068,3.178,0.068
			c0.782,0,1.45-0.022,1.934-0.068c0.23,1.036,1.727,2.786,3.799,5.25l1.935,2.279c1.013,1.197,1.681,2.003,2.211,2.532
			c0.092-0.229,0.092-0.621,0.092-1.036V6.583c0-1.865-0.092-3.593-0.346-4.214c-0.207-0.483-0.714-0.645-1.335-0.737l-0.622-0.092
			c-0.185-0.185-0.138-0.668,0-0.806c1.243,0.046,2.142,0.068,3.085,0.068c0.853,0,1.682-0.022,2.579-0.068
			c0.139,0.138,0.185,0.621,0,0.806L35.848,1.61c-0.599,0.092-1.036,0.276-1.243,0.76c-0.254,0.621-0.346,2.349-0.346,4.214V12.086z
			"/>
		<path fill="#FFFEF9" d="M44.693,12.639c0,2.164,0.138,2.325,1.197,2.51l0.645,0.115c0.184,0.138,0.161,0.667-0.023,0.806
			C45.268,16.024,44.14,16,43.058,16c-1.105,0-2.257,0.023-3.5,0.069c-0.185-0.139-0.185-0.668,0-0.806l0.645-0.115
			c1.059-0.185,1.197-0.346,1.197-2.51V4.166c0-2.165-0.139-2.326-1.197-2.51l-0.645-0.115c-0.185-0.139-0.185-0.668,0-0.806
			c1.243,0.046,2.395,0.068,3.5,0.068c1.082,0,2.233-0.022,3.477-0.068c0.184,0.138,0.184,0.667,0,0.806L45.89,1.656
			c-1.06,0.184-1.197,0.345-1.197,2.51V12.639z"/>
		<path fill="#FFFEF9" d="M60.052,10.291c-1.175,2.786-1.773,4.604-2.303,5.895c-0.185,0.115-0.46,0.184-0.806,0.184
			c-0.276,0-0.483-0.068-0.622-0.184c-0.253-0.622-0.645-1.843-0.967-2.625l-3.73-9.372c-0.875-2.21-0.99-2.256-1.727-2.44
			l-0.921-0.23c-0.185-0.253-0.115-0.667,0.092-0.782c1.175,0.022,1.935,0.068,3.132,0.068c1.059,0,2.049-0.022,3.453-0.068
			c0.185,0.138,0.162,0.575,0.023,0.782l-0.69,0.139c-0.415,0.092-0.576,0.23-0.576,0.438c0,0.184,0.368,1.151,0.921,2.532
			l2.026,5.181c0.322,0.853,0.599,1.543,0.76,1.935c0.185-0.392,0.553-1.174,0.829-1.865l0.875-2.164
			c0.576-1.451,1.565-4.029,1.842-4.812c0.161-0.438,0.23-0.69,0.23-0.829c0-0.161-0.184-0.253-0.736-0.392L60.42,1.517
			c-0.184-0.184-0.184-0.667,0.092-0.782c1.083,0.046,1.958,0.068,2.833,0.068c0.782,0,1.474-0.022,2.141-0.068
			c0.185,0.092,0.208,0.645,0.046,0.782l-0.599,0.115c-0.645,0.115-1.036,0.276-1.335,0.76c-0.507,0.76-1.082,2.05-1.865,3.915
			L60.052,10.291z"/>
		<path fill="#FFFEF9" d="M72.627,6.791c0,0.645,0.022,0.69,0.645,0.69h1.589c1.197,0,1.474-0.161,1.703-1.267l0.115-0.575
			c0.161-0.185,0.737-0.185,0.853,0.022c-0.046,0.737-0.069,1.566-0.069,2.441s0.023,1.703,0.069,2.44
			c-0.115,0.207-0.691,0.23-0.853,0.023l-0.115-0.576c-0.229-1.105-0.506-1.289-1.703-1.289h-1.589
			c-0.622,0-0.645,0.022-0.645,0.714v2.739c0,1.06,0.092,1.797,0.368,2.188c0.299,0.415,0.736,0.599,2.418,0.599
			c2.003,0,2.785-0.068,4.052-2.671c0.185-0.253,0.76-0.161,0.853,0.115c-0.093,1.197-0.646,3.062-0.968,3.685
			C78.13,16.024,75.919,16,74.032,16h-2.993c-1.105,0-2.233,0.023-3.961,0.069c-0.184-0.139-0.184-0.691,0-0.806l1.082-0.162
			c1.036-0.161,1.175-0.299,1.175-2.417V4.096c0-2.096-0.139-2.233-1.175-2.44l-0.575-0.115C67.377,1.402,67.4,0.873,67.63,0.735
			c1.082,0.046,2.211,0.068,3.315,0.068h4.882c1.474,0,2.786-0.022,3.085-0.068c0.023,0.368,0.185,2.026,0.3,3.568
			c-0.092,0.254-0.622,0.3-0.852,0.093c-0.254-0.807-0.576-1.497-0.875-1.819c-0.438-0.438-1.129-0.714-2.257-0.714h-1.842
			c-0.76,0-0.76,0.046-0.76,0.898V6.791z"/>
		<path fill="#FFFEF9" d="M85.293,4.534c0-2.303-0.046-2.556-1.014-2.694l-0.621-0.092c-0.23-0.115-0.23-0.69,0.046-0.806
			c1.727-0.115,3.522-0.207,5.71-0.207c1.958,0,3.639,0.299,4.514,0.829c1.335,0.782,2.026,1.934,2.026,3.407
			c0,2.05-1.382,2.924-2.441,3.454c-0.229,0.115-0.229,0.253-0.115,0.507c1.521,3.085,2.464,4.812,3.569,5.756
			c0.599,0.483,1.197,0.622,1.543,0.645c0.207,0.115,0.207,0.461,0.092,0.599c-0.368,0.161-1.105,0.207-1.819,0.207
			c-2.118,0-3.453-0.76-4.467-2.417c-0.736-1.221-1.267-2.349-1.796-3.569c-0.276-0.621-0.645-0.806-1.22-0.806
			c-0.807,0-0.853,0.046-0.853,0.507v2.832c0,2.118,0.139,2.279,1.175,2.464l0.621,0.115c0.161,0.114,0.161,0.667,0,0.806
			C89.024,16.024,87.964,16,86.859,16c-1.151,0-2.164,0.023-3.361,0.069c-0.185-0.139-0.185-0.691,0-0.806l0.621-0.115
			c1.036-0.185,1.175-0.346,1.175-2.464V4.534z M88.448,7.458c0,0.806,0.069,0.874,1.428,0.874c0.829,0,1.312-0.207,1.75-0.645
			c0.392-0.392,0.829-1.128,0.829-2.486c0-2.072-1.221-3.408-3.017-3.408c-0.944,0-0.99,0.069-0.99,1.175V7.458z"/>
		<path fill="#FFFEF9" d="M105.444,16.369c-2.118,0-3.431-0.599-3.914-0.875c-0.438-0.506-0.737-2.164-0.737-3.729
			c0.161-0.3,0.691-0.322,0.875-0.069c0.461,1.496,2.004,3.615,3.961,3.615c1.703,0,2.486-1.175,2.486-2.326
			c0-1.865-1.75-2.97-3.131-3.661c-1.658-0.828-3.478-2.21-3.478-4.489c-0.022-2.603,2.004-4.398,5.342-4.398
			c0.76,0,1.704,0.093,2.625,0.368c0.3,0.093,0.507,0.139,0.783,0.185c0.185,0.507,0.414,1.75,0.414,3.293
			c-0.115,0.276-0.69,0.299-0.897,0.068c-0.392-1.174-1.382-2.854-3.04-2.854c-1.52,0-2.349,0.99-2.349,2.142
			c0,1.059,0.944,2.025,2.096,2.624L108,7.067c1.428,0.76,3.247,2.095,3.247,4.628C111.247,14.527,108.92,16.369,105.444,16.369z"/>
		<path fill="#FFFEF9" d="M120.137,12.639c0,2.164,0.138,2.325,1.197,2.51l0.645,0.115c0.184,0.138,0.161,0.667-0.023,0.806
			c-1.243-0.046-2.371-0.069-3.453-0.069c-1.105,0-2.257,0.023-3.5,0.069c-0.185-0.139-0.185-0.668,0-0.806l0.645-0.115
			c1.059-0.185,1.197-0.346,1.197-2.51V4.166c0-2.165-0.139-2.326-1.197-2.51l-0.645-0.115c-0.185-0.139-0.185-0.668,0-0.806
			c1.243,0.046,2.395,0.068,3.5,0.068c1.082,0,2.233-0.022,3.477-0.068c0.184,0.138,0.184,0.667,0,0.806l-0.645,0.115
			c-1.06,0.184-1.197,0.345-1.197,2.51V12.639z"/>
		<path fill="#FFFEF9" d="M130.936,2.531c0-0.553,0-0.668-0.552-0.668h-1.428c-1.682,0-2.165,0.921-2.855,2.602
			c-0.276,0.139-0.714,0.093-0.852-0.207c0.483-1.589,0.599-3.017,0.76-3.914c0.092-0.069,0.207-0.115,0.322-0.115
			s0.23,0.023,0.322,0.092c0.115,0.392,0.185,0.483,1.934,0.483h8.566c1.52,0,1.864-0.022,2.072-0.506
			c0.092-0.046,0.161-0.069,0.299-0.069c0.139,0,0.3,0.092,0.346,0.161c-0.23,0.783-0.392,2.648-0.346,3.96
			c-0.115,0.208-0.736,0.254-0.852,0.069c-0.392-1.474-0.714-2.556-2.441-2.556h-1.381c-0.553,0-0.622,0.069-0.622,0.668v10.154
			c0,2.142,0.139,2.325,1.175,2.464l0.921,0.115c0.161,0.138,0.161,0.667,0,0.806C134.828,16.024,133.676,16,132.64,16
			c-1.105,0-2.303,0.023-3.914,0.069c-0.185-0.139-0.185-0.668,0-0.806l1.036-0.115c1.036-0.115,1.174-0.322,1.174-2.464V2.531z"/>
		<path fill="#FFFEF9" d="M151.086,12.685c0,2.142,0.139,2.325,1.175,2.464l0.921,0.115c0.161,0.138,0.161,0.667,0,0.806
			c-1.497-0.046-2.625-0.069-3.73-0.069s-2.257,0.023-3.615,0.069c-0.184-0.139-0.184-0.668,0-0.806l0.783-0.115
			c1.036-0.161,1.175-0.322,1.175-2.464v-1.151c0-1.151-0.023-1.52-0.622-2.74l-2.74-5.664c-0.46-0.944-0.668-1.312-1.474-1.451
			l-0.783-0.138c-0.207-0.185-0.184-0.737,0.093-0.806c1.036,0.046,1.888,0.068,3.246,0.068c1.405,0,2.579-0.022,3.362-0.068
			c0.207,0.092,0.253,0.621,0.046,0.806l-0.783,0.185c-0.414,0.092-0.553,0.184-0.553,0.207c0,0.184,0.115,0.529,0.599,1.611
			l1.082,2.464c0.346,0.76,0.875,1.819,1.151,2.395c0.668-1.128,1.382-2.625,1.98-3.799c0.829-1.635,1.105-2.326,1.105-2.603
			c0-0.138-0.368-0.275-0.921-0.368l-0.438-0.092c-0.185-0.115-0.207-0.69,0.022-0.806c0.921,0.046,1.75,0.068,2.579,0.068
			c0.875,0,1.589-0.022,2.257-0.068c0.276,0.092,0.276,0.645,0.092,0.806l-0.599,0.115c-0.414,0.069-0.944,0.23-1.197,0.553
			c-0.346,0.438-0.898,1.267-2.003,3.27l-1.451,2.625c-0.599,1.082-0.76,1.657-0.76,2.97V12.685z"/>
		<path fill="#FFFEF9" d="M183.234,8.333c0,5.021-3.361,8.036-8.312,8.036c-4.628,0-7.99-3.039-7.99-7.852
			c0-4.559,3.408-8.082,8.221-8.082C179.942,0.435,183.234,3.659,183.234,8.333z M174.968,1.495c-2.832,0-4.352,2.647-4.352,6.493
			c0,2.809,0.989,7.322,4.743,7.322c3.016,0,4.19-2.947,4.19-6.678C179.55,4.695,177.824,1.495,174.968,1.495z"/>
		<path fill="#FFFEF9" d="M192.379,6.974c0,0.622,0.022,0.691,0.645,0.691h1.772c1.221,0,1.474-0.161,1.704-1.29l0.115-0.553
			c0.161-0.207,0.736-0.184,0.875,0.023c-0.046,0.737-0.069,1.589-0.069,2.464c0,0.852,0.023,1.704,0.069,2.395
			c-0.139,0.207-0.714,0.23-0.875,0.023l-0.115-0.553c-0.23-1.105-0.483-1.29-1.704-1.29h-1.772c-0.622,0-0.645,0.069-0.645,0.691
			v3.108c0,2.142,0.138,2.325,1.174,2.464l0.852,0.115c0.161,0.138,0.161,0.667,0,0.806c-1.427-0.046-2.556-0.069-3.66-0.069
			c-1.06,0-2.211,0.023-3.593,0.069c-0.184-0.139-0.184-0.668,0-0.806l0.76-0.115c1.036-0.161,1.175-0.322,1.175-2.464V4.12
			c0-2.142-0.139-2.349-1.175-2.51l-0.46-0.069c-0.207-0.139-0.207-0.714,0.046-0.806c0.99,0.046,2.142,0.068,3.247,0.068h4.835
			c1.474,0,2.786-0.022,3.108-0.068c0,0.392,0,2.049,0.046,3.592c-0.092,0.253-0.599,0.276-0.875,0.092
			c-0.253-0.943-0.438-1.496-0.668-1.796c-0.391-0.483-1.082-0.76-2.256-0.76h-1.796c-0.76,0-0.76,0.046-0.76,0.944V6.974z"/>
		<path fill="#FFFEF9" d="M224.041,1.034c0,0.415,0.07,2.257,0.277,3.592c-0.092,0.276-0.715,0.369-0.875,0.161
			c-0.621-2.141-2.096-3.292-4.328-3.292c-2.557,0-5.297,2.188-5.297,6.77s2.648,7.046,5.41,7.046c2.787,0,4.076-2.004,4.697-3.569
			c0.186-0.185,0.738-0.115,0.875,0.161c-0.16,1.704-0.551,3.086-0.875,3.615c-1.242,0.346-2.877,0.852-4.674,0.852
			c-2.256,0-4.559-0.529-6.193-1.75c-1.658-1.266-2.924-3.177-2.924-6.032c0-2.81,1.197-4.789,2.785-6.102
			c1.635-1.358,3.984-2.05,6.379-2.05C221.646,0.435,223.352,0.988,224.041,1.034z"/>
		<path fill="#FFFEF9" d="M244.33,8.333c0,5.021-3.361,8.036-8.311,8.036c-4.629,0-7.99-3.039-7.99-7.852
			c0-4.559,3.408-8.082,8.221-8.082C241.039,0.435,244.33,3.659,244.33,8.333z M236.064,1.495c-2.832,0-4.352,2.647-4.352,6.493
			c0,2.809,0.99,7.322,4.744,7.322c3.016,0,4.189-2.947,4.189-6.678C240.646,4.695,238.92,1.495,236.064,1.495z"/>
		<path fill="#FFFEF9" d="M250.184,4.534c0-2.325-0.047-2.602-1.014-2.717l-0.713-0.092c-0.209-0.115-0.209-0.622,0.045-0.783
			c1.52-0.115,3.316-0.207,5.318-0.207c1.957,0,3.248,0.229,4.215,0.599c1.404,0.529,2.809,1.75,2.809,3.983
			c0,3.776-3.799,4.328-5.02,4.328c-0.275,0-0.484,0-0.736-0.022c-0.186-0.115-0.23-0.483-0.07-0.622
			c1.912-0.599,2.303-1.957,2.303-3.661c0-1.703-0.875-3.546-2.947-3.546c-0.852,0-0.896,0.254-0.896,1.175v9.717
			c0,2.142,0.137,2.325,1.174,2.486l0.736,0.115c0.254,0.115,0.254,0.645,0,0.783c-1.289-0.046-2.418-0.069-3.523-0.069
			s-2.209,0.023-3.453,0.069c-0.254-0.139-0.299-0.668-0.047-0.783l0.645-0.115c1.037-0.184,1.176-0.345,1.176-2.486V4.534z"/>
		<path fill="#FFFEF9" d="M269.205,6.791c0,0.645,0.023,0.69,0.645,0.69h1.59c1.197,0,1.473-0.161,1.703-1.267l0.115-0.575
			c0.16-0.185,0.736-0.185,0.852,0.022c-0.045,0.737-0.068,1.566-0.068,2.441s0.023,1.703,0.068,2.44
			c-0.115,0.207-0.691,0.23-0.852,0.023l-0.115-0.576c-0.23-1.105-0.506-1.289-1.703-1.289h-1.59c-0.621,0-0.645,0.022-0.645,0.714
			v2.739c0,1.06,0.092,1.797,0.369,2.188c0.299,0.415,0.736,0.599,2.418,0.599c2.002,0,2.785-0.068,4.051-2.671
			c0.186-0.253,0.76-0.161,0.854,0.115c-0.094,1.197-0.646,3.062-0.969,3.685c-1.219-0.046-3.43-0.069-5.318-0.069h-2.992
			c-1.105,0-2.234,0.023-3.961,0.069c-0.184-0.139-0.184-0.691,0-0.806l1.082-0.162c1.035-0.161,1.174-0.299,1.174-2.417V4.096
			c0-2.096-0.139-2.233-1.174-2.44l-0.576-0.115c-0.207-0.139-0.184-0.668,0.047-0.806c1.082,0.046,2.211,0.068,3.314,0.068h4.883
			c1.473,0,2.785-0.022,3.084-0.068c0.023,0.368,0.186,2.026,0.301,3.568c-0.092,0.254-0.623,0.3-0.852,0.093
			c-0.254-0.807-0.576-1.497-0.875-1.819c-0.438-0.438-1.129-0.714-2.258-0.714h-1.842c-0.76,0-0.76,0.046-0.76,0.898V6.791z"/>
		<path fill="#FFFEF9" d="M294.26,12.086c0,1.496,0,2.947,0.045,3.707c-0.16,0.276-0.805,0.529-1.357,0.529
			c-0.023,0-0.783-1.174-1.865-2.51l-5.318-6.585c-1.336-1.635-2.096-2.603-2.51-2.947c-0.115,0.23-0.115,0.621-0.115,1.474v4.467
			c0,1.865,0.092,3.592,0.344,4.214c0.209,0.483,0.738,0.645,1.336,0.736l0.645,0.093c0.186,0.184,0.139,0.667,0,0.806
			c-1.242-0.046-2.164-0.069-3.084-0.069c-0.854,0-1.705,0.023-2.58,0.069c-0.139-0.139-0.184-0.622,0-0.806l0.393-0.069
			c0.621-0.115,1.082-0.276,1.266-0.76c0.254-0.622,0.322-2.349,0.322-4.214V4.373c0-1.267-0.023-1.635-0.16-1.957
			c-0.186-0.392-0.508-0.668-1.312-0.783l-0.646-0.092c-0.16-0.185-0.137-0.737,0.094-0.806c1.082,0.046,2.232,0.068,3.178,0.068
			c0.781,0,1.449-0.022,1.934-0.068c0.23,1.036,1.727,2.786,3.799,5.25l1.934,2.279c1.014,1.197,1.682,2.003,2.211,2.532
			c0.092-0.229,0.092-0.621,0.092-1.036V6.583c0-1.865-0.092-3.593-0.346-4.214c-0.207-0.483-0.713-0.645-1.334-0.737l-0.623-0.092
			c-0.184-0.185-0.137-0.668,0-0.806c1.244,0.046,2.143,0.068,3.086,0.068c0.852,0,1.682-0.022,2.578-0.068
			c0.139,0.138,0.186,0.621,0,0.806l-0.414,0.069c-0.598,0.092-1.035,0.276-1.242,0.76c-0.254,0.621-0.346,2.349-0.346,4.214V12.086
			z"/>
		<path fill="#FFFEF9" d="M305.66,8.702c-0.945,0-0.967,0.022-0.967,0.668v3.315c0,2.142,0.137,2.349,1.174,2.486l0.736,0.093
			c0.184,0.138,0.184,0.667,0,0.806c-1.312-0.046-2.463-0.069-3.5-0.069c-1.105,0-2.256,0.023-3.43,0.069
			c-0.186-0.139-0.186-0.668,0-0.806l0.551-0.069c1.061-0.139,1.176-0.368,1.176-2.51V4.12c0-2.142-0.115-2.372-1.176-2.51
			l-0.551-0.069c-0.186-0.139-0.186-0.668,0-0.806c1.127,0.046,2.324,0.068,3.43,0.068c1.037,0,2.188-0.022,3.201-0.068
			c0.184,0.138,0.184,0.667,0,0.806L305.82,1.61c-0.99,0.138-1.127,0.368-1.127,2.51v2.671c0,0.668,0.021,0.69,0.967,0.69h4.789
			c0.967,0,0.967-0.022,0.967-0.69V4.12c0-2.142-0.115-2.326-1.174-2.487l-0.623-0.092c-0.184-0.139-0.184-0.668,0-0.806
			c1.268,0.046,2.395,0.068,3.5,0.068c1.129,0,2.188-0.022,3.248-0.068c0.184,0.138,0.184,0.667,0,0.806l-0.461,0.069
			c-1.059,0.161-1.197,0.368-1.197,2.51v8.565c0,2.142,0.139,2.303,1.197,2.486l0.553,0.093c0.184,0.138,0.184,0.667,0,0.806
			c-1.152-0.046-2.279-0.069-3.34-0.069c-1.15,0-2.279,0.023-3.385,0.069c-0.184-0.139-0.184-0.668,0-0.806l0.508-0.069
			c1.059-0.139,1.174-0.368,1.174-2.51V9.37c0-0.646,0-0.668-0.967-0.668H305.66z"/>
		<path fill="#FFFEF9" d="M324.361,10.796c-0.553,0-0.623,0.023-0.762,0.461l-0.896,2.671c-0.139,0.461-0.162,0.645-0.162,0.829
			c0,0.138,0.299,0.276,0.945,0.392l0.689,0.115c0.139,0.161,0.186,0.69-0.045,0.806c-0.807-0.046-1.635-0.046-2.604-0.069
			c-0.781,0-1.312,0.069-2.371,0.069c-0.252-0.139-0.23-0.622-0.068-0.806l0.621-0.069c0.553-0.069,1.014-0.254,1.404-1.151
			c0.393-0.921,0.83-2.026,1.451-3.685l2.096-5.618c0.529-1.45,0.92-2.256,0.852-2.924c1.105-0.253,1.957-1.382,2.004-1.382
			c0.299,0,0.438,0.115,0.529,0.461c0.184,0.668,0.461,1.52,1.035,3.154l3.133,9.026c0.482,1.381,0.689,1.911,1.541,2.049
			l0.875,0.139c0.139,0.114,0.186,0.667-0.021,0.806c-1.105-0.046-2.35-0.069-3.547-0.069c-1.15,0-2.049,0.023-3.107,0.069
			c-0.254-0.139-0.301-0.622-0.047-0.806l0.736-0.115c0.529-0.093,0.623-0.254,0.623-0.392c0-0.161-0.162-0.714-0.438-1.566
			l-0.623-1.979c-0.115-0.369-0.299-0.415-1.105-0.415H324.361z M326.984,9.577c0.531,0,0.646-0.069,0.461-0.668l-0.598-1.865
			c-0.322-0.99-0.738-2.233-0.945-2.717c-0.184,0.529-0.645,1.772-0.99,2.832l-0.574,1.727c-0.207,0.622-0.092,0.691,0.482,0.691
			H326.984z"/>
		<path fill="#FFFEF9" d="M351.025,13.399c0,0.967,0.047,1.428,0.484,1.52c0.092,0.092,0.068,0.483-0.068,0.553
			c-0.393,0.068-0.99,0.138-1.613,0.345c-0.805,0.254-2.785,0.553-4.074,0.553c-1.566,0-2.902-0.161-4.537-0.806
			c-2.693-1.082-4.535-3.638-4.535-6.954c0-2.878,1.289-5.41,4.053-6.953c1.564-0.853,3.43-1.221,5.387-1.221
			c2.557,0,3.822,0.553,4.561,0.553c0.068,0.69,0.092,2.303,0.322,3.707c-0.094,0.253-0.715,0.276-0.875,0.046
			c-0.738-2.164-2.188-3.246-4.33-3.246c-3.66,0-5.434,3.039-5.434,6.677c0,3.293,1.129,5.25,2.625,6.264
			c1.105,0.736,2.303,0.875,3.154,0.875c1.312,0,1.59-0.254,1.59-1.75v-1.451c0-1.243-0.139-1.381-1.244-1.542l-1.014-0.139
			c-0.252-0.138-0.252-0.668,0-0.806c1.635,0.046,2.764,0.069,3.893,0.069c1.104,0,2.232-0.023,3.016-0.069
			c0.184,0.138,0.184,0.668,0,0.806l-0.529,0.092c-0.691,0.115-0.83,0.346-0.83,1.589V13.399z"/>
		<path fill="#FFFEF9" d="M360.885,6.791c0,0.645,0.023,0.69,0.645,0.69h1.59c1.197,0,1.473-0.161,1.703-1.267l0.115-0.575
			c0.16-0.185,0.736-0.185,0.852,0.022c-0.045,0.737-0.068,1.566-0.068,2.441s0.023,1.703,0.068,2.44
			c-0.115,0.207-0.691,0.23-0.852,0.023l-0.115-0.576c-0.23-1.105-0.506-1.289-1.703-1.289h-1.59c-0.621,0-0.645,0.022-0.645,0.714
			v2.739c0,1.06,0.092,1.797,0.369,2.188c0.299,0.415,0.736,0.599,2.418,0.599c2.002,0,2.785-0.068,4.051-2.671
			c0.186-0.253,0.76-0.161,0.854,0.115c-0.094,1.197-0.646,3.062-0.969,3.685c-1.219-0.046-3.43-0.069-5.318-0.069h-2.992
			c-1.105,0-2.234,0.023-3.961,0.069c-0.184-0.139-0.184-0.691,0-0.806l1.082-0.162c1.035-0.161,1.174-0.299,1.174-2.417V4.096
			c0-2.096-0.139-2.233-1.174-2.44l-0.576-0.115c-0.207-0.139-0.184-0.668,0.047-0.806c1.082,0.046,2.211,0.068,3.314,0.068h4.883
			c1.473,0,2.785-0.022,3.084-0.068c0.023,0.368,0.186,2.026,0.301,3.568c-0.092,0.254-0.623,0.3-0.852,0.093
			c-0.254-0.807-0.576-1.497-0.875-1.819c-0.438-0.438-1.129-0.714-2.258-0.714h-1.842c-0.76,0-0.76,0.046-0.76,0.898V6.791z"/>
		<path fill="#FFFEF9" d="M385.939,12.086c0,1.496,0,2.947,0.045,3.707c-0.16,0.276-0.805,0.529-1.357,0.529
			c-0.023,0-0.783-1.174-1.865-2.51l-5.318-6.585c-1.336-1.635-2.096-2.603-2.51-2.947c-0.115,0.23-0.115,0.621-0.115,1.474v4.467
			c0,1.865,0.092,3.592,0.344,4.214c0.209,0.483,0.738,0.645,1.336,0.736l0.645,0.093c0.186,0.184,0.139,0.667,0,0.806
			C375.9,16.024,374.979,16,374.059,16c-0.854,0-1.705,0.023-2.58,0.069c-0.139-0.139-0.184-0.622,0-0.806l0.393-0.069
			c0.621-0.115,1.082-0.276,1.266-0.76c0.254-0.622,0.322-2.349,0.322-4.214V4.373c0-1.267-0.023-1.635-0.16-1.957
			c-0.186-0.392-0.508-0.668-1.312-0.783l-0.646-0.092c-0.16-0.185-0.137-0.737,0.094-0.806c1.082,0.046,2.232,0.068,3.178,0.068
			c0.781,0,1.449-0.022,1.934-0.068c0.23,1.036,1.727,2.786,3.799,5.25l1.934,2.279c1.014,1.197,1.682,2.003,2.211,2.532
			c0.092-0.229,0.092-0.621,0.092-1.036V6.583c0-1.865-0.092-3.593-0.346-4.214c-0.207-0.483-0.713-0.645-1.334-0.737l-0.623-0.092
			c-0.184-0.185-0.137-0.668,0-0.806c1.244,0.046,2.143,0.068,3.086,0.068c0.852,0,1.682-0.022,2.578-0.068
			c0.139,0.138,0.186,0.621,0,0.806l-0.414,0.069c-0.598,0.092-1.035,0.276-1.242,0.76c-0.254,0.621-0.346,2.349-0.346,4.214V12.086
			z"/>
	</g>
</g>
<g>
</g>
<g>
</g>
<g>
</g>
<g>
</g>
<g>
</g>
<g>
</g>
</svg>
